0, 0, Header, 0, 1, 120
1, 0, Start_track
1, 0, Title_t, "untitled"
1, 0, Time_signature, 3, 2, 24, 8
1, 0, Key_signature, 4, "major"
1, 0, Tempo, 555556
1, 0, Program_c, 0, 0
1, 0, Note_on_c, 0, 68, 64
1, 0, Lyric_t, "E_maj_0 "
1, 120, Note_on_c, 0, 52, 64
1, 120, Note_on_c, 0, 59, 64
1, 240, Note_on_c, 0, 59, 0
1, 240, Note_on_c, 0, 52, 0
1, 240, Note_on_c, 0, 68, 0
1, 240, Note_on_c, 0, 71, 64
1, 240, Note_on_c, 0, 47, 64
1, 240, Note_on_c, 0, 57, 64
1, 240, Lyric_t, "B_dom7_0 "
1, 270, Note_on_c, 0, 71, 0
1, 270, Note_on_c, 0, 69, 64
1, 300, Note_on_c, 0, 69, 0
1, 300, Note_on_c, 0, 68, 64
1, 330, Note_on_c, 0, 68, 0
1, 330, Note_on_c, 0, 66, 64
1, 360, Note_on_c, 0, 66, 0
1, 360, Note_on_c, 0, 57, 0
1, 360, Note_on_c, 0, 47, 0
1, 360, Note_on_c, 0, 64, 64
1, 360, Note_on_c, 0, 52, 64
1, 360, Note_on_c, 0, 56, 64
1, 360, Lyric_t, "E_maj_0 "
1, 480, Note_on_c, 0, 64, 0
1, 480, Note_on_c, 0, 59, 64
1, 600, Note_on_c, 0, 59, 0
1, 600, Note_on_c, 0, 56, 0
1, 600, Note_on_c, 0, 52, 0
1, 600, Note_on_c, 0, 76, 64
1, 720, Note_on_c, 0, 76, 0
1, 720, Note_on_c, 0, 73, 64
1, 720, Lyric_t, "A_maj_0 "
1, 840, Note_on_c, 0, 64, 64
1, 840, Note_on_c, 0, 57, 64
1, 960, Note_on_c, 0, 57, 0
1, 960, Note_on_c, 0, 64, 0
1, 960, Note_on_c, 0, 73, 0
1, 960, Note_on_c, 0, 71, 64
1, 960, Note_on_c, 0, 64, 64
1, 960, Note_on_c, 0, 56, 64
1, 960, Lyric_t, "E_maj_1 "
1, 990, Note_on_c, 0, 71, 0
1, 990, Note_on_c, 0, 75, 64
1, 1020, Note_on_c, 0, 75, 0
1, 1020, Note_on_c, 0, 76, 64
1, 1050, Note_on_c, 0, 76, 0
1, 1050, Note_on_c, 0, 80, 64
1, 1080, Note_on_c, 0, 80, 0
1, 1080, Note_on_c, 0, 56, 0
1, 1080, Note_on_c, 0, 71, 64
1, 1080, Note_on_c, 0, 54, 64
1, 1080, Lyric_t, "F#_min7_0 "
1, 1200, Note_on_c, 0, 64, 0
1, 1200, Note_on_c, 0, 63, 64
1, 1200, Lyric_t, "B_maj_2 "
1, 1290, Note_on_c, 0, 71, 0
1, 1290, Note_on_c, 0, 69, 64
1, 1320, Note_on_c, 0, 69, 0
1, 1320, Note_on_c, 0, 63, 0
1, 1320, Note_on_c, 0, 54, 0
1, 1320, Note_on_c, 0, 68, 64
1, 1320, Note_on_c, 0, 64, 64
1, 1320, Note_on_c, 0, 52, 64
1, 1320, Lyric_t, "E_maj_0 "
1, 1440, Note_on_c, 0, 52, 0
1, 1440, Note_on_c, 0, 64, 0
1, 1440, Note_on_c, 0, 68, 0
1, 1440, Note_on_c, 0, 80, 64
1, 1560, Note_on_c, 0, 71, 64
1, 1560, Note_on_c, 0, 64, 64
1, 1650, Note_on_c, 0, 80, 0
1, 1650, Note_on_c, 0, 82, 64
1, 1680, Note_on_c, 0, 82, 0
1, 1680, Note_on_c, 0, 64, 0
1, 1680, Note_on_c, 0, 71, 0
1, 1680, Note_on_c, 0, 83, 64
1, 1680, Note_on_c, 0, 71, 64
1, 1680, Note_on_c, 0, 63, 64
1, 1680, Lyric_t, "B_maj_1 "
1, 1710, Note_on_c, 0, 83, 0
1, 1710, Note_on_c, 0, 82, 64
1, 1740, Note_on_c, 0, 82, 0
1, 1740, Note_on_c, 0, 80, 64
1, 1770, Note_on_c, 0, 80, 0
1, 1770, Note_on_c, 0, 78, 64
1, 1800, Note_on_c, 0, 78, 0
1, 1800, Note_on_c, 0, 63, 0
1, 1800, Note_on_c, 0, 76, 64
1, 1800, Note_on_c, 0, 61, 64
1, 1800, Lyric_t, "C#_min7_0 "
1, 1920, Note_on_c, 0, 71, 0
1, 1920, Note_on_c, 0, 70, 64
1, 1920, Lyric_t, "A#_dim_1 "
1, 2040, Note_on_c, 0, 70, 0
1, 2040, Note_on_c, 0, 61, 0
1, 2040, Note_on_c, 0, 76, 0
1, 2040, Note_on_c, 0, 75, 64
1, 2040, Note_on_c, 0, 71, 64
1, 2040, Note_on_c, 0, 59, 64
1, 2040, Lyric_t, "B_maj_0 "
1, 2160, Note_on_c, 0, 59, 0
1, 2160, Note_on_c, 0, 71, 0
1, 2160, Note_on_c, 0, 75, 0
1, 2160, Note_on_c, 0, 72, 64
1, 2160, Note_on_c, 0, 68, 64
1, 2160, Note_on_c, 0, 64, 64
1, 2160, Lyric_t, "C#_min_1 "
1, 2190, Note_on_c, 0, 72, 0
1, 2190, Note_on_c, 0, 73, 64
1, 2220, Note_on_c, 0, 73, 0
1, 2220, Note_on_c, 0, 76, 64
1, 2250, Note_on_c, 0, 76, 0
1, 2250, Note_on_c, 0, 80, 64
1, 2280, Note_on_c, 0, 80, 0
1, 2280, Note_on_c, 0, 64, 0
1, 2280, Note_on_c, 0, 68, 0
1, 2280, Note_on_c, 0, 71, 64
1, 2280, Note_on_c, 0, 63, 64
1, 2280, Note_on_c, 0, 54, 64
1, 2280, Lyric_t, "B_maj_2 "
1, 2400, Note_on_c, 0, 54, 0
1, 2400, Note_on_c, 0, 63, 0
1, 2400, Note_on_c, 0, 71, 0
1, 2400, Note_on_c, 0, 64, 64
1, 2400, Note_on_c, 0, 70, 64
1, 2400, Note_on_c, 0, 61, 64
1, 2400, Note_on_c, 0, 54, 64
1, 2400, Lyric_t, "F#_dom7_0 "
1, 2520, Note_on_c, 0, 54, 0
1, 2520, Note_on_c, 0, 64, 0
1, 2520, Note_on_c, 0, 70, 0
1, 2520, Note_on_c, 0, 61, 0
1, 2520, Note_on_c, 0, 64, 64
1, 2520, Note_on_c, 0, 70, 64
1, 2520, Note_on_c, 0, 59, 64
1, 2520, Lyric_t, "B_maj_0 "
1, 2640, Note_on_c, 0, 59, 0
1, 2640, Note_on_c, 0, 54, 64
1, 2760, Note_on_c, 0, 54, 0
1, 2760, Note_on_c, 0, 70, 0
1, 2760, Note_on_c, 0, 64, 0
1, 2760, Note_on_c, 0, 63, 64
1, 2760, Note_on_c, 0, 71, 64
1, 2760, Note_on_c, 0, 47, 64
1, 2880, Note_on_c, 0, 47, 0
1, 2880, Note_on_c, 0, 71, 0
1, 2880, Note_on_c, 0, 63, 0
1, 2880, End_track
0, 0, End_of_file
