0, 0, Header, 0, 1, 120
1, 0, Start_track
1, 0, Title_t, "untitled"
1, 0, Time_signature, 3, 2, 24, 8
1, 0, Key_signature, 0, "major"
1, 0, Tempo, 833333
1, 0, Program_c, 0, 0
1, 0, Note_on_c, 0, 70, 64
1, 0, Note_on_c, 0, 65, 64
1, 0, Note_on_c, 0, 62, 64
1, 0, Note_on_c, 0, 58, 64
1, 0, Lyric_t, "Bb_maj_0 "
1, 120, Note_on_c, 0, 58, 0
1, 120, Note_on_c, 0, 62, 0
1, 120, Note_on_c, 0, 70, 0
1, 120, Note_on_c, 0, 69, 64
1, 120, Note_on_c, 0, 63, 64
1, 120, Note_on_c, 0, 60, 64
1, 120, Lyric_t, "F_dom7_2 "
1, 240, Note_on_c, 0, 60, 0
1, 240, Note_on_c, 0, 63, 0
1, 240, Note_on_c, 0, 69, 0
1, 240, Note_on_c, 0, 70, 64
1, 240, Note_on_c, 0, 62, 64
1, 240, Note_on_c, 0, 58, 64
1, 240, Lyric_t, "Bb_maj_0 "
1, 360, Note_on_c, 0, 58, 0
1, 360, Note_on_c, 0, 62, 0
1, 360, Note_on_c, 0, 70, 0
1, 360, Note_on_c, 0, 72, 64
1, 360, Note_on_c, 0, 60, 64
1, 360, Note_on_c, 0, 57, 64
1, 360, Lyric_t, "F_dom7_1 "
1, 450, Note_on_c, 0, 72, 0
1, 450, Note_on_c, 0, 74, 64
1, 480, Note_on_c, 0, 74, 0
1, 480, Note_on_c, 0, 75, 64
1, 600, Note_on_c, 0, 75, 0
1, 600, Note_on_c, 0, 57, 0
1, 600, Note_on_c, 0, 60, 0
1, 600, Note_on_c, 0, 74, 64
1, 600, Note_on_c, 0, 58, 64
1, 600, Note_on_c, 0, 58, 64
1, 600, Lyric_t, "Bb_maj_0 "
1, 720, Note_on_c, 0, 58, 0
1, 720, Note_on_c, 0, 65, 0
1, 720, Note_on_c, 0, 74, 0
1, 720, Note_on_c, 0, 74, 64
1, 720, Note_on_c, 0, 67, 64
1, 720, Note_on_c, 0, 51, 64
1, 720, Lyric_t, "Eb_maj7_0 "
1, 810, Note_on_c, 0, 58, 0
1, 810, Note_on_c, 0, 59, 64
1, 840, Note_on_c, 0, 59, 0
1, 840, Note_on_c, 0, 74, 0
1, 840, Note_on_c, 0, 72, 64
1, 840, Note_on_c, 0, 60, 64
1, 840, Lyric_t, "C_min_6 "
1, 960, Note_on_c, 0, 72, 0
1, 960, Note_on_c, 0, 51, 0
1, 960, Note_on_c, 0, 70, 64
1, 960, Note_on_c, 0, 52, 64
1, 960, Lyric_t, "C_dom7_1 "
1, 1080, Note_on_c, 0, 52, 0
1, 1080, Note_on_c, 0, 70, 0
1, 1080, Note_on_c, 0, 70, 64
1, 1080, Note_on_c, 0, 53, 64
1, 1080, Lyric_t, "F_maj_0 "
1, 1200, Note_on_c, 0, 70, 0
1, 1200, Note_on_c, 0, 60, 0
1, 1200, Note_on_c, 0, 67, 0
1, 1200, Note_on_c, 0, 69, 64
1, 1200, Note_on_c, 0, 65, 64
1, 1260, Note_on_c, 0, 69, 0
1, 1260, Note_on_c, 0, 53, 0
1, 1260, Note_on_c, 0, 67, 64
1, 1260, Note_on_c, 0, 51, 64
1, 1320, Note_on_c, 0, 51, 0
1, 1320, Note_on_c, 0, 67, 0
1, 1320, Note_on_c, 0, 65, 0
1, 1320, Note_on_c, 0, 65, 64
1, 1320, Note_on_c, 0, 50, 64
1, 1380, Note_on_c, 0, 50, 0
1, 1380, Note_on_c, 0, 65, 0
1, 1380, Note_on_c, 0, 69, 64
1, 1380, Note_on_c, 0, 48, 64
1, 1440, Note_on_c, 0, 48, 0
1, 1440, Note_on_c, 0, 69, 0
1, 1440, Note_on_c, 0, 70, 64
1, 1440, Note_on_c, 0, 65, 64
1, 1440, Note_on_c, 0, 61, 64
1, 1440, Note_on_c, 0, 46, 64
1, 1440, Lyric_t, "Bb_min_0 "
1, 1560, Note_on_c, 0, 46, 0
1, 1560, Note_on_c, 0, 61, 0
1, 1560, Note_on_c, 0, 70, 0
1, 1560, Note_on_c, 0, 69, 64
1, 1560, Note_on_c, 0, 63, 64
1, 1560, Note_on_c, 0, 48, 64
1, 1560, Lyric_t, "F_dom7_2 "
1, 1680, Note_on_c, 0, 48, 0
1, 1680, Note_on_c, 0, 63, 0
1, 1680, Note_on_c, 0, 69, 0
1, 1680, Note_on_c, 0, 70, 64
1, 1680, Note_on_c, 0, 61, 64
1, 1680, Note_on_c, 0, 49, 64
1, 1680, Lyric_t, "Bb_min_1 "
1, 1800, Note_on_c, 0, 49, 0
1, 1800, Note_on_c, 0, 65, 0
1, 1800, Note_on_c, 0, 70, 0
1, 1800, Note_on_c, 0, 61, 0
1, 1800, Note_on_c, 0, 71, 64
1, 1800, Note_on_c, 0, 66, 64
1, 1800, Note_on_c, 0, 59, 64
1, 1800, Note_on_c, 0, 51, 64
1, 1800, Lyric_t, "B_maj_1 "
1, 1890, Note_on_c, 0, 71, 0
1, 1890, Note_on_c, 0, 73, 64
1, 1920, Note_on_c, 0, 73, 0
1, 1920, Note_on_c, 0, 75, 64
1, 2160, Note_on_c, 0, 75, 0
1, 2160, Note_on_c, 0, 66, 0
1, 2160, Note_on_c, 0, 59, 0
1, 2160, Note_on_c, 0, 51, 0
1, 2160, Note_on_c, 0, 73, 64
1, 2160, Note_on_c, 0, 68, 64
1, 2160, Note_on_c, 0, 59, 64
1, 2160, Note_on_c, 0, 52, 64
1, 2160, Lyric_t, "C#_min7_1 "
1, 2250, Note_on_c, 0, 59, 0
1, 2250, Note_on_c, 0, 73, 0
1, 2250, Note_on_c, 0, 68, 0
1, 2250, Note_on_c, 0, 75, 64
1, 2250, Note_on_c, 0, 66, 64
1, 2250, Note_on_c, 0, 58, 64
1, 2280, Note_on_c, 0, 58, 0
1, 2280, Note_on_c, 0, 66, 0
1, 2280, Note_on_c, 0, 75, 0
1, 2280, Note_on_c, 0, 76, 64
1, 2280, Note_on_c, 0, 64, 64
1, 2280, Note_on_c, 0, 56, 64
1, 2400, Note_on_c, 0, 56, 0
1, 2400, Note_on_c, 0, 64, 0
1, 2400, Note_on_c, 0, 70, 64
1, 2400, Note_on_c, 0, 61, 64
1, 2400, Lyric_t, "A#_dim_2 "
1, 2520, Note_on_c, 0, 61, 0
1, 2520, Note_on_c, 0, 52, 0
1, 2520, Note_on_c, 0, 76, 0
1, 2520, Note_on_c, 0, 70, 0
1, 2520, Note_on_c, 0, 75, 64
1, 2520, Note_on_c, 0, 71, 64
1, 2520, Note_on_c, 0, 59, 64
1, 2520, Note_on_c, 0, 54, 64
1, 2520, Lyric_t, "B_maj_2 "
1, 2559, Note_on_c, 0, 76, 64
1, 2560, Note_on_c, 0, 75, 0
1, 2599, Note_on_c, 0, 76, 0
1, 2600, Note_on_c, 0, 78, 64
1, 2640, Note_on_c, 0, 78, 0
1, 2640, Note_on_c, 0, 71, 0
1, 2640, Note_on_c, 0, 59, 0
1, 2640, Note_on_c, 0, 71, 64
1, 2640, Note_on_c, 0, 66, 64
1, 2640, Note_on_c, 0, 63, 64
1, 2760, Note_on_c, 0, 63, 0
1, 2760, Note_on_c, 0, 66, 0
1, 2760, Note_on_c, 0, 71, 0
1, 2760, Note_on_c, 0, 70, 64
1, 2760, Note_on_c, 0, 64, 64
1, 2760, Note_on_c, 0, 61, 64
1, 2760, Lyric_t, "F#_dom7_0 "
1, 2880, Note_on_c, 0, 61, 0
1, 2880, Note_on_c, 0, 54, 0
1, 2880, Note_on_c, 0, 70, 0
1, 2880, Note_on_c, 0, 64, 0
1, 2880, Note_on_c, 0, 71, 64
1, 2880, Note_on_c, 0, 63, 64
1, 2880, Note_on_c, 0, 59, 64
1, 2880, Note_on_c, 0, 47, 64
1, 2880, Lyric_t, "B_maj_0 "
1, 2940, Note_on_c, 0, 63, 0
1, 2940, Note_on_c, 0, 59, 64
1, 3000, Note_on_c, 0, 59, 0
1, 3000, Note_on_c, 0, 47, 0
1, 3000, Note_on_c, 0, 59, 0
1, 3000, Note_on_c, 0, 71, 0
1, 3000, End_track
0, 0, End_of_file
