0, 0, Header, 0, 1, 120
1, 0, Start_track
1, 0, Title_t, "untitled"
1, 0, Time_signature, 3, 2, 24, 8
1, 0, Key_signature, -4, "major"
1, 0, Tempo, 750000
1, 0, Program_c, 0, 0
1, 180, Note_on_c, 0, 60, 64
1, 180, Note_on_c, 0, 68, 64
1, 180, Lyric_t, "F_min_0 "
1, 240, Note_on_c, 0, 68, 0
1, 240, Note_on_c, 0, 60, 0
1, 240, Note_on_c, 0, 60, 64
1, 240, Note_on_c, 0, 68, 64
1, 300, Note_on_c, 0, 68, 0
1, 300, Note_on_c, 0, 60, 0
1, 300, Note_on_c, 0, 60, 64
1, 300, Note_on_c, 0, 68, 64
1, 360, Note_on_c, 0, 68, 0
1, 360, Note_on_c, 0, 60, 0
1, 360, Note_on_c, 0, 60, 64
1, 360, Note_on_c, 0, 68, 64
1, 360, Note_on_c, 0, 41, 64
1, 390, Note_on_c, 0, 41, 0
1, 390, Note_on_c, 0, 53, 64
1, 420, Note_on_c, 0, 53, 0
1, 420, Note_on_c, 0, 53, 64
1, 450, Note_on_c, 0, 53, 0
1, 450, Note_on_c, 0, 53, 64
1, 480, Note_on_c, 0, 53, 0
1, 480, Note_on_c, 0, 53, 64
1, 510, Note_on_c, 0, 53, 0
1, 510, Note_on_c, 0, 53, 64
1, 540, Note_on_c, 0, 53, 0
1, 540, Note_on_c, 0, 68, 0
1, 540, Note_on_c, 0, 60, 0
1, 540, Note_on_c, 0, 58, 64
1, 540, Note_on_c, 0, 67, 64
1, 540, Note_on_c, 0, 53, 64
1, 540, Lyric_t, "E_fdim_0 "
1, 570, Note_on_c, 0, 53, 0
1, 570, Note_on_c, 0, 53, 64
1, 600, Note_on_c, 0, 53, 0
1, 600, Note_on_c, 0, 67, 0
1, 600, Note_on_c, 0, 58, 0
1, 600, Note_on_c, 0, 61, 64
1, 600, Note_on_c, 0, 70, 64
1, 600, Note_on_c, 0, 53, 64
1, 630, Note_on_c, 0, 53, 0
1, 630, Note_on_c, 0, 53, 64
1, 660, Note_on_c, 0, 53, 0
1, 660, Note_on_c, 0, 70, 0
1, 660, Note_on_c, 0, 61, 0
1, 660, Note_on_c, 0, 55, 64
1, 660, Note_on_c, 0, 64, 64
1, 660, Note_on_c, 0, 53, 64
1, 690, Note_on_c, 0, 53, 0
1, 690, Note_on_c, 0, 53, 64
1, 720, Note_on_c, 0, 53, 0
1, 720, Note_on_c, 0, 64, 0
1, 720, Note_on_c, 0, 55, 0
1, 720, Note_on_c, 0, 56, 64
1, 720, Note_on_c, 0, 65, 64
1, 720, Note_on_c, 0, 41, 64
1, 720, Lyric_t, "F_min_0 "
1, 750, Note_on_c, 0, 41, 0
1, 750, Note_on_c, 0, 53, 64
1, 780, Note_on_c, 0, 53, 0
1, 780, Note_on_c, 0, 53, 64
1, 810, Note_on_c, 0, 53, 0
1, 810, Note_on_c, 0, 53, 64
1, 840, Note_on_c, 0, 53, 0
1, 840, Note_on_c, 0, 53, 64
1, 870, Note_on_c, 0, 53, 0
1, 870, Note_on_c, 0, 53, 64
1, 900, Note_on_c, 0, 53, 0
1, 900, Note_on_c, 0, 65, 0
1, 900, Note_on_c, 0, 56, 0
1, 900, Note_on_c, 0, 68, 64
1, 900, Note_on_c, 0, 72, 64
1, 900, Note_on_c, 0, 53, 64
1, 930, Note_on_c, 0, 53, 0
1, 930, Note_on_c, 0, 53, 64
1, 960, Note_on_c, 0, 53, 0
1, 960, Note_on_c, 0, 72, 0
1, 960, Note_on_c, 0, 68, 0
1, 960, Note_on_c, 0, 68, 64
1, 960, Note_on_c, 0, 72, 64
1, 960, Note_on_c, 0, 53, 64
1, 990, Note_on_c, 0, 53, 0
1, 990, Note_on_c, 0, 53, 64
1, 1020, Note_on_c, 0, 53, 0
1, 1020, Note_on_c, 0, 72, 0
1, 1020, Note_on_c, 0, 68, 0
1, 1020, Note_on_c, 0, 68, 64
1, 1020, Note_on_c, 0, 72, 64
1, 1020, Note_on_c, 0, 53, 64
1, 1050, Note_on_c, 0, 53, 0
1, 1050, Note_on_c, 0, 53, 64
1, 1080, Note_on_c, 0, 53, 0
1, 1080, Note_on_c, 0, 72, 0
1, 1080, Note_on_c, 0, 68, 0
1, 1080, Note_on_c, 0, 72, 64
1, 1080, Note_on_c, 0, 67, 64
1, 1080, Note_on_c, 0, 40, 64
1, 1080, Lyric_t, "C_dom7_1 "
1, 1110, Note_on_c, 0, 40, 0
1, 1110, Note_on_c, 0, 52, 64
1, 1140, Note_on_c, 0, 52, 0
1, 1140, Note_on_c, 0, 52, 64
1, 1170, Note_on_c, 0, 52, 0
1, 1170, Note_on_c, 0, 52, 64
1, 1200, Note_on_c, 0, 52, 0
1, 1200, Note_on_c, 0, 52, 64
1, 1230, Note_on_c, 0, 52, 0
1, 1230, Note_on_c, 0, 52, 64
1, 1260, Note_on_c, 0, 52, 0
1, 1260, Note_on_c, 0, 72, 0
1, 1260, Note_on_c, 0, 73, 64
1, 1260, Note_on_c, 0, 52, 64
1, 1290, Note_on_c, 0, 52, 0
1, 1290, Note_on_c, 0, 52, 64
1, 1320, Note_on_c, 0, 52, 0
1, 1320, Note_on_c, 0, 73, 0
1, 1320, Note_on_c, 0, 72, 64
1, 1320, Note_on_c, 0, 52, 64
1, 1350, Note_on_c, 0, 52, 0
1, 1350, Note_on_c, 0, 52, 64
1, 1380, Note_on_c, 0, 52, 0
1, 1380, Note_on_c, 0, 72, 0
1, 1380, Note_on_c, 0, 70, 64
1, 1380, Note_on_c, 0, 52, 64
1, 1410, Note_on_c, 0, 52, 0
1, 1410, Note_on_c, 0, 52, 64
1, 1440, Note_on_c, 0, 52, 0
1, 1440, Note_on_c, 0, 70, 0
1, 1440, Note_on_c, 0, 67, 0
1, 1440, Note_on_c, 0, 70, 64
1, 1440, Note_on_c, 0, 67, 64
1, 1440, Note_on_c, 0, 41, 64
1, 1440, Lyric_t, "F_min_0 "
1, 1470, Note_on_c, 0, 41, 0
1, 1470, Note_on_c, 0, 53, 64
1, 1500, Note_on_c, 0, 53, 0
1, 1500, Note_on_c, 0, 67, 0
1, 1500, Note_on_c, 0, 70, 0
1, 1500, Note_on_c, 0, 68, 64
1, 1500, Note_on_c, 0, 65, 64
1, 1500, Note_on_c, 0, 53, 64
1, 1530, Note_on_c, 0, 53, 0
1, 1530, Note_on_c, 0, 53, 64
1, 1560, Note_on_c, 0, 53, 0
1, 1560, Note_on_c, 0, 65, 0
1, 1560, Note_on_c, 0, 68, 0
1, 1560, Note_on_c, 0, 53, 64
1, 1620, Note_on_c, 0, 68, 64
1, 1680, Note_on_c, 0, 68, 0
1, 1680, Note_on_c, 0, 53, 0
1, 1680, Note_on_c, 0, 70, 64
1, 1740, Note_on_c, 0, 70, 0
1, 1740, Note_on_c, 0, 72, 64
1, 1800, Note_on_c, 0, 72, 0
1, 1800, Note_on_c, 0, 75, 64
1, 1800, Lyric_t, "Db_maj_1 "
1, 1860, Note_on_c, 0, 75, 0
1, 1860, Note_on_c, 0, 73, 64
1, 1860, Note_on_c, 0, 53, 64
1, 1860, Note_on_c, 0, 56, 64
1, 1860, Note_on_c, 0, 61, 64
1, 1920, Note_on_c, 0, 61, 0
1, 1920, Note_on_c, 0, 73, 0
1, 1920, Note_on_c, 0, 53, 0
1, 1920, Note_on_c, 0, 56, 0
1, 1920, Note_on_c, 0, 53, 64
1, 1920, Note_on_c, 0, 56, 64
1, 1920, Note_on_c, 0, 61, 64
1, 1980, Note_on_c, 0, 61, 0
1, 1980, Note_on_c, 0, 56, 0
1, 1980, Note_on_c, 0, 53, 0
1, 1980, Note_on_c, 0, 73, 64
1, 1980, Note_on_c, 0, 53, 64
1, 1980, Note_on_c, 0, 56, 64
1, 1980, Note_on_c, 0, 61, 64
1, 2040, Note_on_c, 0, 61, 0
1, 2040, Note_on_c, 0, 73, 0
1, 2040, Note_on_c, 0, 53, 0
1, 2040, Note_on_c, 0, 56, 0
1, 2040, Note_on_c, 0, 73, 64
1, 2040, Note_on_c, 0, 53, 64
1, 2040, Note_on_c, 0, 56, 64
1, 2040, Note_on_c, 0, 61, 64
1, 2100, Note_on_c, 0, 61, 0
1, 2100, Note_on_c, 0, 73, 0
1, 2100, Note_on_c, 0, 53, 0
1, 2100, Note_on_c, 0, 56, 0
1, 2100, Note_on_c, 0, 73, 64
1, 2100, Note_on_c, 0, 53, 64
1, 2100, Note_on_c, 0, 56, 64
1, 2100, Note_on_c, 0, 61, 64
1, 2160, Note_on_c, 0, 61, 0
1, 2160, Note_on_c, 0, 73, 0
1, 2160, Note_on_c, 0, 53, 0
1, 2160, Note_on_c, 0, 56, 0
1, 2160, Note_on_c, 0, 73, 64
1, 2160, Note_on_c, 0, 55, 64
1, 2160, Note_on_c, 0, 58, 64
1, 2160, Note_on_c, 0, 61, 64
1, 2160, Note_on_c, 0, 63, 64
1, 2160, Lyric_t, "Eb_dom7_1 "
1, 2250, Note_on_c, 0, 73, 0
1, 2250, Note_on_c, 0, 75, 64
1, 2280, Note_on_c, 0, 75, 0
1, 2280, Note_on_c, 0, 77, 64
1, 2400, Note_on_c, 0, 63, 0
1, 2400, Note_on_c, 0, 61, 0
1, 2400, Note_on_c, 0, 55, 0
1, 2400, Note_on_c, 0, 58, 0
1, 2460, Note_on_c, 0, 77, 0
1, 2460, Note_on_c, 0, 75, 64
1, 2490, Note_on_c, 0, 75, 0
1, 2490, Note_on_c, 0, 73, 64
1, 2520, Note_on_c, 0, 73, 0
1, 2520, Note_on_c, 0, 72, 64
1, 2520, Note_on_c, 0, 56, 64
1, 2520, Lyric_t, "Ab_maj_0 "
1, 2550, Note_on_c, 0, 72, 0
1, 2550, Note_on_c, 0, 75, 64
1, 2580, Note_on_c, 0, 75, 0
1, 2580, Note_on_c, 0, 56, 0
1, 2580, Note_on_c, 0, 73, 64
1, 2580, Note_on_c, 0, 58, 64
1, 2580, Note_on_c, 0, 49, 64
1, 2580, Lyric_t, "Bb_min_1 "
1, 2610, Note_on_c, 0, 73, 0
1, 2610, Note_on_c, 0, 70, 64
1, 2640, Note_on_c, 0, 70, 0
1, 2640, Note_on_c, 0, 49, 0
1, 2640, Note_on_c, 0, 58, 0
1, 2640, Note_on_c, 0, 68, 64
1, 2640, Note_on_c, 0, 60, 64
1, 2640, Note_on_c, 0, 51, 64
1, 2640, Lyric_t, "Ab_maj_2 "
1, 2760, Note_on_c, 0, 60, 0
1, 2760, Note_on_c, 0, 61, 64
1, 2760, Lyric_t, "Eb_dom7_1 "
1, 2820, Note_on_c, 0, 68, 0
1, 2820, Note_on_c, 0, 72, 64
1, 2820, Note_on_c, 0, 67, 64
1, 2850, Note_on_c, 0, 72, 0
1, 2850, Note_on_c, 0, 70, 64
1, 2880, Note_on_c, 0, 70, 0
1, 2880, Note_on_c, 0, 67, 0
1, 2880, Note_on_c, 0, 61, 0
1, 2880, Note_on_c, 0, 51, 0
1, 2880, Note_on_c, 0, 68, 64
1, 2880, Note_on_c, 0, 56, 64
1, 2880, Note_on_c, 0, 60, 64
1, 2880, Lyric_t, "Ab_maj_0 "
1, 3000, Note_on_c, 0, 60, 0
1, 3000, Note_on_c, 0, 56, 0
1, 3000, Note_on_c, 0, 68, 0
1, 3000, Note_on_c, 0, 44, 64
1, 3060, Note_on_c, 0, 44, 0
1, 3060, End_track
0, 0, End_of_file
