0, 0, Header, 0, 1, 120
1, 0, Start_track
1, 0, Title_t, "untitled"
1, 0, Copyright_t, "Copyright © 2001 by -"
1, 0, Text_t, "-\012"
1, 0, Time_signature, 4, 2, 24, 8
1, 0, Key_signature, 0, "major"
1, 0, Tempo, 600000
1, 0, Note_on_c, 0, 76, 64
1, 0, Note_on_c, 0, 40, 64
1, 0, Note_on_c, 0, 68, 64
1, 0, Note_on_c, 0, 52, 64
1, 0, Lyric_t, "E_maj_0 "
1, 60, Note_on_c, 0, 52, 0
1, 60, Note_on_c, 0, 56, 64
1, 120, Note_on_c, 0, 56, 0
1, 120, Note_on_c, 0, 59, 64
1, 180, Note_on_c, 0, 59, 0
1, 180, Note_on_c, 0, 64, 64
1, 240, Note_on_c, 0, 64, 0
1, 240, Note_on_c, 0, 63, 64
1, 300, Note_on_c, 0, 63, 0
1, 300, Note_on_c, 0, 62, 64
1, 360, Note_on_c, 0, 62, 0
1, 360, Note_on_c, 0, 68, 0
1, 360, Note_on_c, 0, 71, 64
1, 360, Note_on_c, 0, 61, 64
1, 420, Note_on_c, 0, 61, 0
1, 420, Note_on_c, 0, 71, 0
1, 420, Note_on_c, 0, 69, 64
1, 420, Note_on_c, 0, 64, 64
1, 480, Note_on_c, 0, 64, 0
1, 480, Note_on_c, 0, 69, 0
1, 480, Note_on_c, 0, 69, 64
1, 480, Note_on_c, 0, 59, 64
1, 540, Note_on_c, 0, 59, 0
1, 540, Note_on_c, 0, 69, 0
1, 540, Note_on_c, 0, 68, 64
1, 540, Note_on_c, 0, 64, 64
1, 600, Note_on_c, 0, 64, 0
1, 600, Note_on_c, 0, 68, 0
1, 600, Note_on_c, 0, 68, 64
1, 600, Note_on_c, 0, 57, 64
1, 660, Note_on_c, 0, 57, 0
1, 660, Note_on_c, 0, 68, 0
1, 660, Note_on_c, 0, 66, 64
1, 660, Note_on_c, 0, 64, 64
1, 720, Note_on_c, 0, 64, 0
1, 720, Note_on_c, 0, 66, 0
1, 720, Note_on_c, 0, 71, 64
1, 720, Note_on_c, 0, 56, 64
1, 720, Lyric_t, "E_maj_1 "
1, 780, Note_on_c, 0, 56, 0
1, 780, Note_on_c, 0, 64, 64
1, 840, Note_on_c, 0, 64, 0
1, 840, Note_on_c, 0, 71, 0
1, 840, Note_on_c, 0, 40, 0
1, 840, Note_on_c, 0, 76, 0
1, 840, Note_on_c, 0, 59, 64
1, 900, Note_on_c, 0, 59, 0
1, 900, Note_on_c, 0, 76, 64
1, 900, Note_on_c, 0, 64, 64
1, 960, Note_on_c, 0, 64, 0
1, 960, Note_on_c, 0, 76, 0
1, 960, Note_on_c, 0, 75, 64
1, 960, Note_on_c, 0, 56, 64
1, 1020, Note_on_c, 0, 56, 0
1, 1020, Note_on_c, 0, 75, 0
1, 1020, Note_on_c, 0, 74, 64
1, 1020, Note_on_c, 0, 64, 64
1, 1080, Note_on_c, 0, 64, 0
1, 1080, Note_on_c, 0, 74, 0
1, 1080, Note_on_c, 0, 73, 64
1, 1080, Note_on_c, 0, 57, 64
1, 1080, Lyric_t, "A_maj_0 "
1, 1140, Note_on_c, 0, 57, 0
1, 1140, Note_on_c, 0, 64, 64
1, 1200, Note_on_c, 0, 64, 0
1, 1200, Note_on_c, 0, 73, 0
1, 1200, Note_on_c, 0, 61, 64
1, 1260, Note_on_c, 0, 61, 0
1, 1260, Note_on_c, 0, 75, 64
1, 1260, Note_on_c, 0, 64, 64
1, 1290, Note_on_c, 0, 75, 0
1, 1290, Note_on_c, 0, 73, 64
1, 1320, Note_on_c, 0, 73, 0
1, 1320, Note_on_c, 0, 64, 0
1, 1320, Note_on_c, 0, 71, 64
1, 1320, Note_on_c, 0, 57, 64
1, 1350, Note_on_c, 0, 71, 0
1, 1350, Note_on_c, 0, 69, 64
1, 1380, Note_on_c, 0, 69, 0
1, 1380, Note_on_c, 0, 57, 0
1, 1380, Note_on_c, 0, 68, 64
1, 1380, Note_on_c, 0, 61, 64
1, 1410, Note_on_c, 0, 68, 0
1, 1410, Note_on_c, 0, 66, 64
1, 1440, Note_on_c, 0, 66, 0
1, 1440, Note_on_c, 0, 61, 0
1, 1440, Note_on_c, 0, 64, 64
1, 1440, Note_on_c, 0, 47, 64
1, 1440, Lyric_t, "E_maj_2 "
1, 1500, Note_on_c, 0, 47, 0
1, 1500, Note_on_c, 0, 59, 64
1, 1560, Note_on_c, 0, 59, 0
1, 1560, Note_on_c, 0, 56, 64
1, 1620, Note_on_c, 0, 56, 0
1, 1620, Note_on_c, 0, 59, 64
1, 1620, Lyric_t, "B_maj_0 "
1, 1680, Note_on_c, 0, 59, 0
1, 1680, Note_on_c, 0, 64, 0
1, 1680, Note_on_c, 0, 68, 64
1, 1680, Note_on_c, 0, 57, 64
1, 1740, Note_on_c, 0, 57, 0
1, 1740, Note_on_c, 0, 68, 0
1, 1740, Note_on_c, 0, 66, 64
1, 1740, Note_on_c, 0, 59, 64
1, 1800, Note_on_c, 0, 59, 0
1, 1800, Note_on_c, 0, 66, 0
1, 1800, Note_on_c, 0, 64, 64
1, 1800, Note_on_c, 0, 64, 64
1, 1800, Note_on_c, 0, 36, 64
1, 1800, Note_on_c, 0, 48, 64
1, 1800, Lyric_t, "C_maj_0 "
1, 1860, Note_on_c, 0, 64, 0
1, 1860, Note_on_c, 0, 67, 64
1, 1920, Note_on_c, 0, 67, 0
1, 1920, Note_on_c, 0, 64, 64
1, 1980, Note_on_c, 0, 64, 0
1, 1980, Note_on_c, 0, 60, 64
1, 2040, Note_on_c, 0, 60, 0
1, 2040, Note_on_c, 0, 55, 64
1, 2100, Note_on_c, 0, 55, 0
1, 2100, Note_on_c, 0, 60, 64
1, 2160, Note_on_c, 0, 60, 0
1, 2160, Note_on_c, 0, 64, 0
1, 2160, Note_on_c, 0, 36, 0
1, 2160, Note_on_c, 0, 48, 0
1, 2160, Note_on_c, 0, 67, 64
1, 2160, Note_on_c, 0, 57, 64
1, 2160, Note_on_c, 0, 29, 64
1, 2160, Note_on_c, 0, 41, 64
1, 2160, Lyric_t, "D_min_1 "
1, 2220, Note_on_c, 0, 57, 0
1, 2220, Note_on_c, 0, 67, 0
1, 2220, Note_on_c, 0, 65, 64
1, 2220, Note_on_c, 0, 62, 64
1, 2280, Note_on_c, 0, 62, 0
1, 2280, Note_on_c, 0, 65, 0
1, 2280, Note_on_c, 0, 65, 64
1, 2280, Note_on_c, 0, 69, 64
1, 2340, Note_on_c, 0, 69, 0
1, 2340, Note_on_c, 0, 65, 0
1, 2340, Note_on_c, 0, 64, 64
1, 2340, Note_on_c, 0, 57, 64
1, 2400, Note_on_c, 0, 57, 0
1, 2400, Note_on_c, 0, 64, 0
1, 2400, Note_on_c, 0, 64, 64
1, 2400, Note_on_c, 0, 65, 64
1, 2460, Note_on_c, 0, 65, 0
1, 2460, Note_on_c, 0, 64, 0
1, 2460, Note_on_c, 0, 62, 64
1, 2460, Note_on_c, 0, 57, 64
1, 2520, Note_on_c, 0, 57, 0
1, 2520, Note_on_c, 0, 41, 0
1, 2520, Note_on_c, 0, 29, 0
1, 2520, Note_on_c, 0, 62, 0
1, 2520, Note_on_c, 0, 76, 64
1, 2520, Note_on_c, 0, 67, 64
1, 2520, Note_on_c, 0, 55, 64
1, 2520, Note_on_c, 0, 31, 64
1, 2520, Note_on_c, 0, 43, 64
1, 2520, Lyric_t, "C_maj_2 "
1, 2580, Note_on_c, 0, 55, 0
1, 2580, Note_on_c, 0, 60, 64
1, 2640, Note_on_c, 0, 60, 0
1, 2640, Note_on_c, 0, 67, 0
1, 2640, Note_on_c, 0, 64, 64
1, 2700, Note_on_c, 0, 64, 0
1, 2700, Note_on_c, 0, 60, 64
1, 2760, Note_on_c, 0, 60, 0
1, 2760, Note_on_c, 0, 64, 64
1, 2760, Note_on_c, 0, 67, 64
1, 2820, Note_on_c, 0, 67, 0
1, 2820, Note_on_c, 0, 64, 0
1, 2820, Note_on_c, 0, 60, 64
1, 2820, Note_on_c, 0, 64, 64
1, 2880, Note_on_c, 0, 64, 0
1, 2880, Note_on_c, 0, 76, 0
1, 2880, Note_on_c, 0, 60, 0
1, 2880, Note_on_c, 0, 79, 64
1, 2880, Note_on_c, 0, 65, 64
1, 2880, Note_on_c, 0, 62, 64
1, 2880, Lyric_t, "G_dom7_0 "
1, 2940, Note_on_c, 0, 62, 0
1, 2940, Note_on_c, 0, 79, 0
1, 2940, Note_on_c, 0, 77, 64
1, 2940, Note_on_c, 0, 67, 64
1, 3000, Note_on_c, 0, 67, 0
1, 3000, Note_on_c, 0, 65, 0
1, 3000, Note_on_c, 0, 77, 0
1, 3000, Note_on_c, 0, 77, 64
1, 3000, Note_on_c, 0, 71, 64
1, 3060, Note_on_c, 0, 71, 0
1, 3060, Note_on_c, 0, 77, 0
1, 3060, Note_on_c, 0, 76, 64
1, 3060, Note_on_c, 0, 67, 64
1, 3120, Note_on_c, 0, 67, 0
1, 3120, Note_on_c, 0, 76, 0
1, 3120, Note_on_c, 0, 76, 64
1, 3120, Note_on_c, 0, 62, 64
1, 3120, Note_on_c, 0, 65, 64
1, 3180, Note_on_c, 0, 65, 0
1, 3180, Note_on_c, 0, 76, 0
1, 3180, Note_on_c, 0, 62, 0
1, 3180, Note_on_c, 0, 74, 64
1, 3180, Note_on_c, 0, 59, 64
1, 3180, Note_on_c, 0, 67, 64
1, 3240, Note_on_c, 0, 67, 0
1, 3240, Note_on_c, 0, 74, 0
1, 3240, Note_on_c, 0, 31, 0
1, 3240, Note_on_c, 0, 43, 0
1, 3240, Note_on_c, 0, 59, 0
1, 3240, Note_on_c, 0, 79, 64
1, 3240, Note_on_c, 0, 60, 64
1, 3240, Note_on_c, 0, 75, 64
1, 3240, Note_on_c, 0, 36, 64
1, 3240, Note_on_c, 0, 48, 64
1, 3240, Lyric_t, "C_min_1 "
1, 3300, Note_on_c, 0, 60, 0
1, 3300, Note_on_c, 0, 63, 64
1, 3360, Note_on_c, 0, 63, 0
1, 3360, Note_on_c, 0, 48, 0
1, 3360, Note_on_c, 0, 79, 0
1, 3360, Note_on_c, 0, 36, 0
1, 3360, Note_on_c, 0, 67, 64
1, 3420, Note_on_c, 0, 67, 0
1, 3420, Note_on_c, 0, 63, 64
1, 3480, Note_on_c, 0, 63, 0
1, 3480, Note_on_c, 0, 75, 64
1, 3480, Note_on_c, 0, 60, 64
1, 3540, Note_on_c, 0, 60, 0
1, 3540, Note_on_c, 0, 75, 0
1, 3540, Note_on_c, 0, 72, 64
1, 3540, Note_on_c, 0, 55, 64
1, 3600, Note_on_c, 0, 55, 0
1, 3600, Note_on_c, 0, 72, 0
1, 3600, Note_on_c, 0, 75, 0
1, 3600, Note_on_c, 0, 72, 64
1, 3600, Note_on_c, 0, 56, 64
1, 3600, Note_on_c, 0, 79, 64
1, 3600, Note_on_c, 0, 41, 64
1, 3600, Note_on_c, 0, 53, 64
1, 3600, Lyric_t, "D_hdim_1 "
1, 3660, Note_on_c, 0, 79, 0
1, 3660, Note_on_c, 0, 56, 0
1, 3660, Note_on_c, 0, 62, 64
1, 3660, Note_on_c, 0, 77, 64
1, 3720, Note_on_c, 0, 77, 0
1, 3720, Note_on_c, 0, 72, 0
1, 3720, Note_on_c, 0, 53, 0
1, 3720, Note_on_c, 0, 41, 0
1, 3720, Note_on_c, 0, 62, 0
1, 3720, Note_on_c, 0, 65, 64
1, 3720, Note_on_c, 0, 77, 64
1, 3780, Note_on_c, 0, 77, 0
1, 3780, Note_on_c, 0, 65, 0
1, 3780, Note_on_c, 0, 62, 64
1, 3780, Note_on_c, 0, 75, 64
1, 3840, Note_on_c, 0, 75, 0
1, 3840, Note_on_c, 0, 62, 0
1, 3840, Note_on_c, 0, 72, 64
1, 3840, Note_on_c, 0, 56, 64
1, 3840, Note_on_c, 0, 75, 64
1, 3900, Note_on_c, 0, 75, 0
1, 3900, Note_on_c, 0, 56, 0
1, 3900, Note_on_c, 0, 72, 0
1, 3900, Note_on_c, 0, 68, 64
1, 3900, Note_on_c, 0, 53, 64
1, 3900, Note_on_c, 0, 74, 64
1, 3960, Note_on_c, 0, 74, 0
1, 3960, Note_on_c, 0, 53, 0
1, 3960, Note_on_c, 0, 68, 0
1, 3960, Note_on_c, 0, 67, 64
1, 3960, Note_on_c, 0, 55, 64
1, 3960, Note_on_c, 0, 79, 64
1, 3960, Note_on_c, 0, 63, 64
1, 3960, Lyric_t, "C_min_2 "
1, 4020, Note_on_c, 0, 67, 0
1, 4020, Note_on_c, 0, 72, 64
1, 4080, Note_on_c, 0, 72, 0
1, 4080, Note_on_c, 0, 55, 0
1, 4080, Note_on_c, 0, 79, 0
1, 4080, Note_on_c, 0, 75, 64
1, 4080, Note_on_c, 0, 43, 64
1, 4140, Note_on_c, 0, 75, 0
1, 4140, Note_on_c, 0, 72, 64
1, 4200, Note_on_c, 0, 72, 0
1, 4200, Note_on_c, 0, 67, 64
1, 4200, Note_on_c, 0, 75, 64
1, 4260, Note_on_c, 0, 75, 0
1, 4260, Note_on_c, 0, 67, 0
1, 4260, Note_on_c, 0, 63, 64
1, 4260, Note_on_c, 0, 72, 64
1, 4320, Note_on_c, 0, 72, 0
1, 4320, Note_on_c, 0, 63, 0
1, 4320, Note_on_c, 0, 43, 0
1, 4320, Note_on_c, 0, 63, 0
1, 4320, Note_on_c, 0, 62, 64
1, 4320, Note_on_c, 0, 44, 64
1, 4320, Note_on_c, 0, 71, 64
1, 4320, Note_on_c, 0, 67, 64
1, 4320, Lyric_t, "G#_fdim_0 "
1, 4380, Note_on_c, 0, 67, 0
1, 4380, Note_on_c, 0, 62, 0
1, 4380, Note_on_c, 0, 65, 64
1, 4380, Note_on_c, 0, 65, 64
1, 4440, Note_on_c, 0, 65, 0
1, 4440, Note_on_c, 0, 65, 0
1, 4440, Note_on_c, 0, 71, 0
1, 4440, Note_on_c, 0, 68, 64
1, 4440, Note_on_c, 0, 65, 64
1, 4500, Note_on_c, 0, 65, 0
1, 4500, Note_on_c, 0, 68, 0
1, 4500, Note_on_c, 0, 71, 64
1, 4500, Note_on_c, 0, 64, 64
1, 4560, Note_on_c, 0, 64, 0
1, 4560, Note_on_c, 0, 71, 0
1, 4560, Note_on_c, 0, 74, 64
1, 4560, Note_on_c, 0, 71, 64
1, 4560, Note_on_c, 0, 64, 64
1, 4620, Note_on_c, 0, 64, 0
1, 4620, Note_on_c, 0, 71, 0
1, 4620, Note_on_c, 0, 74, 0
1, 4620, Note_on_c, 0, 71, 64
1, 4620, Note_on_c, 0, 68, 64
1, 4620, Note_on_c, 0, 62, 64
1, 4680, Note_on_c, 0, 62, 0
1, 4680, Note_on_c, 0, 44, 0
1, 4680, Note_on_c, 0, 71, 0
1, 4680, Note_on_c, 0, 68, 0
1, 4680, Note_on_c, 0, 76, 64
1, 4680, Note_on_c, 0, 45, 64
1, 4680, Note_on_c, 0, 72, 64
1, 4680, Note_on_c, 0, 69, 64
1, 4680, Lyric_t, "A_min_0 "
1, 4740, Note_on_c, 0, 72, 0
1, 4740, Note_on_c, 0, 76, 64
1, 4800, Note_on_c, 0, 69, 0
1, 4800, Note_on_c, 0, 76, 0
1, 4800, Note_on_c, 0, 81, 64
1, 4860, Note_on_c, 0, 81, 0
1, 4860, Note_on_c, 0, 76, 64
1, 4920, Note_on_c, 0, 76, 0
1, 4920, Note_on_c, 0, 72, 64
1, 4920, Note_on_c, 0, 64, 64
1, 4980, Note_on_c, 0, 64, 0
1, 4980, Note_on_c, 0, 72, 0
1, 4980, Note_on_c, 0, 69, 64
1, 4980, Note_on_c, 0, 60, 64
1, 5040, Note_on_c, 0, 60, 0
1, 5040, Note_on_c, 0, 45, 0
1, 5040, Note_on_c, 0, 76, 0
1, 5040, Note_on_c, 0, 69, 0
1, 5040, Note_on_c, 0, 81, 64
1, 5040, Note_on_c, 0, 46, 64
1, 5040, Note_on_c, 0, 73, 64
1, 5040, Note_on_c, 0, 67, 64
1, 5040, Lyric_t, "A#_fdim_0 "
1, 5100, Note_on_c, 0, 73, 0
1, 5100, Note_on_c, 0, 81, 0
1, 5100, Note_on_c, 0, 79, 64
1, 5100, Note_on_c, 0, 70, 64
1, 5160, Note_on_c, 0, 70, 0
1, 5160, Note_on_c, 0, 79, 0
1, 5160, Note_on_c, 0, 67, 0
1, 5160, Note_on_c, 0, 79, 64
1, 5160, Note_on_c, 0, 76, 64
1, 5220, Note_on_c, 0, 76, 0
1, 5220, Note_on_c, 0, 79, 0
1, 5220, Note_on_c, 0, 78, 64
1, 5220, Note_on_c, 0, 73, 64
1, 5280, Note_on_c, 0, 73, 0
1, 5280, Note_on_c, 0, 78, 0
1, 5280, Note_on_c, 0, 78, 64
1, 5280, Note_on_c, 0, 70, 64
1, 5280, Note_on_c, 0, 64, 64
1, 5340, Note_on_c, 0, 64, 0
1, 5340, Note_on_c, 0, 70, 0
1, 5340, Note_on_c, 0, 78, 0
1, 5340, Note_on_c, 0, 76, 64
1, 5340, Note_on_c, 0, 64, 64
1, 5340, Note_on_c, 0, 61, 64
1, 5400, Note_on_c, 0, 61, 0
1, 5400, Note_on_c, 0, 46, 0
1, 5400, Note_on_c, 0, 76, 0
1, 5400, Note_on_c, 0, 64, 0
1, 5400, Note_on_c, 0, 80, 64
1, 5400, Note_on_c, 0, 64, 64
1, 5400, Note_on_c, 0, 47, 64
1, 5400, Note_on_c, 0, 59, 64
1, 5400, Lyric_t, "E_maj_2 "
1, 5430, Note_on_c, 0, 64, 64
1, 5460, Note_on_c, 0, 64, 0
1, 5460, Note_on_c, 0, 66, 64
1, 5490, Note_on_c, 0, 66, 0
1, 5490, Note_on_c, 0, 68, 64
1, 5520, Note_on_c, 0, 68, 0
1, 5520, Note_on_c, 0, 59, 0
1, 5520, Note_on_c, 0, 47, 0
1, 5520, Note_on_c, 0, 69, 64
1, 5550, Note_on_c, 0, 69, 0
1, 5550, Note_on_c, 0, 71, 64
1, 5580, Note_on_c, 0, 71, 0
1, 5580, Note_on_c, 0, 73, 64
1, 5610, Note_on_c, 0, 73, 0
1, 5610, Note_on_c, 0, 75, 64
1, 5640, Note_on_c, 0, 75, 0
1, 5640, Note_on_c, 0, 76, 64
1, 5670, Note_on_c, 0, 76, 0
1, 5670, Note_on_c, 0, 71, 64
1, 5700, Note_on_c, 0, 71, 0
1, 5700, Note_on_c, 0, 73, 64
1, 5730, Note_on_c, 0, 73, 0
1, 5730, Note_on_c, 0, 75, 64
1, 5760, Note_on_c, 0, 75, 0
1, 5760, Note_on_c, 0, 76, 64
1, 5790, Note_on_c, 0, 76, 0
1, 5790, Note_on_c, 0, 78, 64
1, 5820, Note_on_c, 0, 78, 0
1, 5820, Note_on_c, 0, 80, 64
1, 5850, Note_on_c, 0, 80, 0
1, 5850, Note_on_c, 0, 81, 64
1, 5880, Note_on_c, 0, 81, 0
1, 5880, Note_on_c, 0, 83, 64
1, 5910, Note_on_c, 0, 83, 0
1, 5910, Note_on_c, 0, 76, 64
1, 5940, Note_on_c, 0, 76, 0
1, 5940, Note_on_c, 0, 78, 64
1, 5970, Note_on_c, 0, 78, 0
1, 5970, Note_on_c, 0, 80, 64
1, 6000, Note_on_c, 0, 80, 0
1, 6000, Note_on_c, 0, 81, 64
1, 6030, Note_on_c, 0, 81, 0
1, 6030, Note_on_c, 0, 83, 64
1, 6060, Note_on_c, 0, 83, 0
1, 6060, Note_on_c, 0, 85, 64
1, 6090, Note_on_c, 0, 85, 0
1, 6090, Note_on_c, 0, 87, 64
1, 6120, Note_on_c, 0, 87, 0
1, 6120, Note_on_c, 0, 88, 64
1, 6150, Note_on_c, 0, 88, 0
1, 6150, Note_on_c, 0, 87, 64
1, 6180, Note_on_c, 0, 87, 0
1, 6180, Note_on_c, 0, 80, 0
1, 6180, Note_on_c, 0, 64, 0
1, 6180, Note_on_c, 0, 85, 64
1, 6210, Note_on_c, 0, 85, 0
1, 6210, Note_on_c, 0, 83, 64
1, 6240, Note_on_c, 0, 83, 0
1, 6240, Note_on_c, 0, 83, 64
1, 6240, Note_on_c, 0, 68, 64
1, 6240, Note_on_c, 0, 81, 64
1, 6270, Note_on_c, 0, 81, 0
1, 6270, Note_on_c, 0, 80, 64
1, 6300, Note_on_c, 0, 80, 0
1, 6300, Note_on_c, 0, 68, 0
1, 6300, Note_on_c, 0, 83, 0
1, 6300, Note_on_c, 0, 78, 64
1, 6330, Note_on_c, 0, 78, 0
1, 6330, Note_on_c, 0, 76, 64
1, 6360, Note_on_c, 0, 76, 0
1, 6360, Note_on_c, 0, 68, 64
1, 6360, Note_on_c, 0, 59, 64
1, 6360, Note_on_c, 0, 88, 64
1, 6390, Note_on_c, 0, 88, 0
1, 6390, Note_on_c, 0, 76, 64
1, 6420, Note_on_c, 0, 76, 0
1, 6420, Note_on_c, 0, 59, 0
1, 6420, Note_on_c, 0, 68, 0
1, 6420, Note_on_c, 0, 88, 64
1, 6450, Note_on_c, 0, 88, 0
1, 6450, Note_on_c, 0, 76, 64
1, 6480, Note_on_c, 0, 76, 0
1, 6480, Note_on_c, 0, 71, 64
1, 6480, Note_on_c, 0, 47, 64
1, 6480, Note_on_c, 0, 78, 64
1, 6480, Note_on_c, 0, 59, 64
1, 6480, Lyric_t, "B_dom7_0 "
1, 6510, Note_on_c, 0, 59, 0
1, 6510, Note_on_c, 0, 69, 64
1, 6540, Note_on_c, 0, 69, 0
1, 6540, Note_on_c, 0, 63, 64
1, 6570, Note_on_c, 0, 63, 0
1, 6570, Note_on_c, 0, 69, 64
1, 6600, Note_on_c, 0, 69, 0
1, 6600, Note_on_c, 0, 59, 64
1, 6630, Note_on_c, 0, 59, 0
1, 6630, Note_on_c, 0, 69, 64
1, 6660, Note_on_c, 0, 69, 0
1, 6660, Note_on_c, 0, 63, 64
1, 6690, Note_on_c, 0, 63, 0
1, 6690, Note_on_c, 0, 69, 64
1, 6720, Note_on_c, 0, 69, 0
1, 6720, Note_on_c, 0, 59, 64
1, 6750, Note_on_c, 0, 59, 0
1, 6750, Note_on_c, 0, 69, 64
1, 6780, Note_on_c, 0, 69, 0
1, 6780, Note_on_c, 0, 63, 64
1, 6810, Note_on_c, 0, 63, 0
1, 6810, Note_on_c, 0, 69, 64
1, 6840, Note_on_c, 0, 69, 0
1, 6840, Note_on_c, 0, 78, 0
1, 6840, Note_on_c, 0, 47, 0
1, 6840, Note_on_c, 0, 71, 0
1, 6840, Note_on_c, 0, 64, 64
1, 6840, Note_on_c, 0, 52, 64
1, 6840, Note_on_c, 0, 76, 64
1, 6840, Note_on_c, 0, 52, 64
1, 6840, Lyric_t, "E_maj_0 "
1, 6900, Note_on_c, 0, 52, 0
1, 6900, Note_on_c, 0, 64, 64
1, 6960, Note_on_c, 0, 64, 0
1, 6960, Note_on_c, 0, 52, 0
1, 6960, Note_on_c, 0, 76, 0
1, 6960, Note_on_c, 0, 64, 0
1, 6960, End_track
0, 0, End_of_file
