0, 0, Header, 0, 1, 120
1, 0, Start_track
1, 0, Title_t, "untitled"
1, 0, Time_signature, 2, 2, 24, 8
1, 0, Key_signature, -2, "major"
1, 0, Tempo, 909091
1, 0, Program_c, 0, 0
1, 0, Note_on_c, 0, 75, 64
1, 0, Note_on_c, 0, 63, 64
1, 0, Note_on_c, 0, 72, 64
1, 0, Note_on_c, 0, 48, 64
1, 0, Lyric_t, "Ab_maj_1 "
1, 30, Note_on_c, 0, 48, 0
1, 30, Note_on_c, 0, 51, 64
1, 60, Note_on_c, 0, 51, 0
1, 60, Note_on_c, 0, 75, 0
1, 60, Note_on_c, 0, 72, 64
1, 60, Note_on_c, 0, 56, 64
1, 90, Note_on_c, 0, 56, 0
1, 90, Note_on_c, 0, 60, 64
1, 120, Note_on_c, 0, 60, 0
1, 120, Note_on_c, 0, 72, 0
1, 120, Note_on_c, 0, 75, 64
1, 120, Note_on_c, 0, 48, 64
1, 150, Note_on_c, 0, 48, 0
1, 150, Note_on_c, 0, 51, 64
1, 180, Note_on_c, 0, 51, 0
1, 180, Note_on_c, 0, 75, 0
1, 180, Note_on_c, 0, 72, 64
1, 180, Note_on_c, 0, 56, 64
1, 210, Note_on_c, 0, 56, 0
1, 210, Note_on_c, 0, 60, 64
1, 240, Note_on_c, 0, 60, 0
1, 240, Note_on_c, 0, 72, 0
1, 240, Note_on_c, 0, 72, 0
1, 240, Note_on_c, 0, 63, 0
1, 240, Note_on_c, 0, 70, 64
1, 240, Note_on_c, 0, 61, 64
1, 240, Note_on_c, 0, 70, 64
1, 240, Note_on_c, 0, 37, 64
1, 240, Lyric_t, "Bb_min_1 "
1, 270, Note_on_c, 0, 37, 0
1, 270, Note_on_c, 0, 49, 64
1, 300, Note_on_c, 0, 49, 0
1, 300, Note_on_c, 0, 70, 0
1, 300, Note_on_c, 0, 73, 64
1, 300, Note_on_c, 0, 53, 64
1, 330, Note_on_c, 0, 53, 0
1, 330, Note_on_c, 0, 58, 64
1, 360, Note_on_c, 0, 58, 0
1, 360, Note_on_c, 0, 73, 0
1, 360, Note_on_c, 0, 70, 64
1, 360, Note_on_c, 0, 37, 64
1, 390, Note_on_c, 0, 37, 0
1, 390, Note_on_c, 0, 49, 64
1, 420, Note_on_c, 0, 49, 0
1, 420, Note_on_c, 0, 70, 0
1, 420, Note_on_c, 0, 73, 64
1, 420, Note_on_c, 0, 53, 64
1, 450, Note_on_c, 0, 53, 0
1, 450, Note_on_c, 0, 58, 64
1, 480, Note_on_c, 0, 58, 0
1, 480, Note_on_c, 0, 73, 0
1, 480, Note_on_c, 0, 70, 0
1, 480, Note_on_c, 0, 61, 0
1, 480, Note_on_c, 0, 68, 64
1, 480, Note_on_c, 0, 60, 64
1, 480, Note_on_c, 0, 68, 64
1, 480, Note_on_c, 0, 39, 64
1, 480, Lyric_t, "Ab_maj_2 "
1, 510, Note_on_c, 0, 39, 0
1, 510, Note_on_c, 0, 48, 64
1, 540, Note_on_c, 0, 48, 0
1, 540, Note_on_c, 0, 51, 64
1, 570, Note_on_c, 0, 51, 0
1, 570, Note_on_c, 0, 56, 64
1, 600, Note_on_c, 0, 56, 0
1, 600, Note_on_c, 0, 68, 0
1, 600, Note_on_c, 0, 60, 0
1, 600, Note_on_c, 0, 68, 0
1, 600, Note_on_c, 0, 72, 64
1, 600, Note_on_c, 0, 58, 64
1, 600, Note_on_c, 0, 67, 64
1, 600, Note_on_c, 0, 39, 64
1, 600, Lyric_t, "Eb_dom7_0 "
1, 630, Note_on_c, 0, 39, 0
1, 630, Note_on_c, 0, 72, 0
1, 630, Note_on_c, 0, 70, 64
1, 630, Note_on_c, 0, 46, 64
1, 645, Note_on_c, 0, 67, 0
1, 645, Note_on_c, 0, 58, 0
1, 645, Note_on_c, 0, 60, 64
1, 645, Note_on_c, 0, 68, 64
1, 660, Note_on_c, 0, 68, 0
1, 660, Note_on_c, 0, 60, 0
1, 660, Note_on_c, 0, 46, 0
1, 660, Note_on_c, 0, 61, 64
1, 660, Note_on_c, 0, 70, 64
1, 660, Note_on_c, 0, 49, 64
1, 690, Note_on_c, 0, 49, 0
1, 690, Note_on_c, 0, 70, 0
1, 690, Note_on_c, 0, 68, 64
1, 690, Note_on_c, 0, 55, 64
1, 705, Note_on_c, 0, 70, 0
1, 705, Note_on_c, 0, 61, 0
1, 705, Note_on_c, 0, 63, 64
1, 705, Note_on_c, 0, 72, 64
1, 705, Lyric_t, "Ab_maj_0 "
1, 720, Note_on_c, 0, 72, 0
1, 720, Note_on_c, 0, 55, 0
1, 720, Note_on_c, 0, 68, 0
1, 720, Note_on_c, 0, 63, 0
1, 720, Note_on_c, 0, 68, 64
1, 720, Note_on_c, 0, 60, 64
1, 720, Note_on_c, 0, 68, 64
1, 720, Note_on_c, 0, 44, 64
1, 750, Note_on_c, 0, 44, 0
1, 750, Note_on_c, 0, 48, 64
1, 780, Note_on_c, 0, 48, 0
1, 780, Note_on_c, 0, 60, 0
1, 780, Note_on_c, 0, 68, 0
1, 780, Note_on_c, 0, 63, 64
1, 780, Note_on_c, 0, 72, 64
1, 780, Note_on_c, 0, 51, 64
1, 810, Note_on_c, 0, 51, 0
1, 810, Note_on_c, 0, 56, 64
1, 840, Note_on_c, 0, 56, 0
1, 840, Note_on_c, 0, 72, 0
1, 840, Note_on_c, 0, 63, 0
1, 840, Note_on_c, 0, 68, 0
1, 840, Note_on_c, 0, 60, 64
1, 840, Note_on_c, 0, 68, 64
1, 840, Note_on_c, 0, 44, 64
1, 870, Note_on_c, 0, 44, 0
1, 870, Note_on_c, 0, 48, 64
1, 900, Note_on_c, 0, 48, 0
1, 900, Note_on_c, 0, 68, 0
1, 900, Note_on_c, 0, 60, 0
1, 900, Note_on_c, 0, 51, 64
1, 930, Note_on_c, 0, 51, 0
1, 930, Note_on_c, 0, 56, 64
1, 960, Note_on_c, 0, 56, 0
1, 960, Note_on_c, 0, 72, 64
1, 960, Note_on_c, 0, 44, 64
1, 990, Note_on_c, 0, 63, 64
1, 1020, Note_on_c, 0, 63, 0
1, 1020, Note_on_c, 0, 44, 0
1, 1020, Note_on_c, 0, 68, 64
1, 1050, Note_on_c, 0, 68, 0
1, 1050, Note_on_c, 0, 72, 64
1, 1080, Note_on_c, 0, 72, 0
1, 1080, Note_on_c, 0, 72, 0
1, 1080, Note_on_c, 0, 72, 64
1, 1080, Note_on_c, 0, 56, 64
1, 1110, Note_on_c, 0, 63, 64
1, 1140, Note_on_c, 0, 63, 0
1, 1140, Note_on_c, 0, 56, 0
1, 1140, Note_on_c, 0, 72, 0
1, 1140, Note_on_c, 0, 72, 64
1, 1140, Note_on_c, 0, 68, 64
1, 1170, Note_on_c, 0, 68, 0
1, 1170, Note_on_c, 0, 72, 64
1, 1200, Note_on_c, 0, 72, 0
1, 1200, Note_on_c, 0, 72, 0
1, 1200, Note_on_c, 0, 72, 64
1, 1200, Note_on_c, 0, 55, 64
1, 1200, Lyric_t, "C_min_2 "
1, 1230, Note_on_c, 0, 72, 0
1, 1230, Note_on_c, 0, 74, 64
1, 1230, Note_on_c, 0, 67, 64
1, 1260, Note_on_c, 0, 67, 0
1, 1260, Note_on_c, 0, 74, 0
1, 1260, Note_on_c, 0, 55, 0
1, 1260, Note_on_c, 0, 75, 64
1, 1260, Note_on_c, 0, 72, 64
1, 1290, Note_on_c, 0, 72, 0
1, 1290, Note_on_c, 0, 75, 0
1, 1290, Note_on_c, 0, 74, 64
1, 1290, Note_on_c, 0, 75, 64
1, 1320, Note_on_c, 0, 75, 0
1, 1320, Note_on_c, 0, 74, 0
1, 1320, Note_on_c, 0, 72, 64
1, 1320, Note_on_c, 0, 55, 64
1, 1350, Note_on_c, 0, 67, 64
1, 1380, Note_on_c, 0, 67, 0
1, 1380, Note_on_c, 0, 55, 0
1, 1380, Note_on_c, 0, 72, 64
1, 1410, Note_on_c, 0, 72, 0
1, 1410, Note_on_c, 0, 75, 64
1, 1440, Note_on_c, 0, 75, 0
1, 1440, Note_on_c, 0, 72, 0
1, 1440, Note_on_c, 0, 75, 64
1, 1440, Note_on_c, 0, 54, 64
1, 1440, Lyric_t, "F#_fdim_0 "
1, 1470, Note_on_c, 0, 63, 64
1, 1500, Note_on_c, 0, 63, 0
1, 1500, Note_on_c, 0, 54, 0
1, 1500, Note_on_c, 0, 69, 64
1, 1530, Note_on_c, 0, 69, 0
1, 1530, Note_on_c, 0, 72, 64
1, 1560, Note_on_c, 0, 72, 0
1, 1560, Note_on_c, 0, 75, 0
1, 1560, Note_on_c, 0, 74, 64
1, 1560, Note_on_c, 0, 54, 64
1, 1590, Note_on_c, 0, 63, 64
1, 1620, Note_on_c, 0, 63, 0
1, 1620, Note_on_c, 0, 54, 0
1, 1620, Note_on_c, 0, 74, 0
1, 1620, Note_on_c, 0, 72, 64
1, 1620, Note_on_c, 0, 69, 64
1, 1650, Note_on_c, 0, 69, 0
1, 1650, Note_on_c, 0, 72, 64
1, 1680, Note_on_c, 0, 72, 0
1, 1680, Note_on_c, 0, 72, 0
1, 1680, Note_on_c, 0, 67, 64
1, 1680, Note_on_c, 0, 79, 64
1, 1680, Note_on_c, 0, 71, 64
1, 1680, Note_on_c, 0, 43, 64
1, 1680, Lyric_t, "G_dom7_0 "
1, 1710, Note_on_c, 0, 43, 0
1, 1710, Note_on_c, 0, 55, 64
1, 1740, Note_on_c, 0, 55, 0
1, 1740, Note_on_c, 0, 71, 0
1, 1740, Note_on_c, 0, 74, 64
1, 1740, Note_on_c, 0, 77, 64
1, 1740, Note_on_c, 0, 55, 64
1, 1770, Note_on_c, 0, 55, 0
1, 1770, Note_on_c, 0, 55, 64
1, 1800, Note_on_c, 0, 55, 0
1, 1800, Note_on_c, 0, 77, 0
1, 1800, Note_on_c, 0, 74, 0
1, 1800, Note_on_c, 0, 72, 64
1, 1800, Note_on_c, 0, 75, 64
1, 1800, Note_on_c, 0, 55, 64
1, 1830, Note_on_c, 0, 55, 0
1, 1830, Note_on_c, 0, 55, 64
1, 1860, Note_on_c, 0, 55, 0
1, 1860, Note_on_c, 0, 75, 0
1, 1860, Note_on_c, 0, 72, 0
1, 1860, Note_on_c, 0, 71, 64
1, 1860, Note_on_c, 0, 74, 64
1, 1860, Note_on_c, 0, 55, 64
1, 1890, Note_on_c, 0, 55, 0
1, 1890, Note_on_c, 0, 55, 64
1, 1920, Note_on_c, 0, 55, 0
1, 1920, Note_on_c, 0, 74, 0
1, 1920, Note_on_c, 0, 67, 0
1, 1920, Note_on_c, 0, 79, 0
1, 1920, Note_on_c, 0, 71, 0
1, 1920, Note_on_c, 0, 75, 64
1, 1920, Note_on_c, 0, 75, 64
1, 1920, Note_on_c, 0, 87, 64
1, 1920, Note_on_c, 0, 48, 64
1, 1920, Lyric_t, "C_min_0 "
1, 1950, Note_on_c, 0, 48, 0
1, 1950, Note_on_c, 0, 51, 64
1, 1980, Note_on_c, 0, 51, 0
1, 1980, Note_on_c, 0, 55, 64
1, 2010, Note_on_c, 0, 55, 0
1, 2010, Note_on_c, 0, 60, 64
1, 2040, Note_on_c, 0, 60, 0
1, 2040, Note_on_c, 0, 87, 0
1, 2040, Note_on_c, 0, 75, 0
1, 2040, Note_on_c, 0, 75, 0
1, 2040, Note_on_c, 0, 74, 64
1, 2040, Note_on_c, 0, 74, 64
1, 2040, Note_on_c, 0, 86, 64
1, 2040, Note_on_c, 0, 50, 64
1, 2040, Lyric_t, "G_min_2 "
1, 2070, Note_on_c, 0, 50, 0
1, 2070, Note_on_c, 0, 55, 64
1, 2070, Note_on_c, 0, 58, 64
1, 2100, Note_on_c, 0, 58, 0
1, 2100, Note_on_c, 0, 74, 0
1, 2100, Note_on_c, 0, 86, 0
1, 2100, Note_on_c, 0, 74, 0
1, 2100, Note_on_c, 0, 55, 0
1, 2100, Note_on_c, 0, 73, 64
1, 2100, Note_on_c, 0, 73, 64
1, 2100, Note_on_c, 0, 85, 64
1, 2100, Note_on_c, 0, 51, 64
1, 2100, Lyric_t, "X_Ger6_0 "
1, 2130, Note_on_c, 0, 51, 0
1, 2130, Note_on_c, 0, 55, 64
1, 2130, Note_on_c, 0, 58, 64
1, 2160, Note_on_c, 0, 58, 0
1, 2160, Note_on_c, 0, 73, 0
1, 2160, Note_on_c, 0, 85, 0
1, 2160, Note_on_c, 0, 73, 0
1, 2160, Note_on_c, 0, 55, 0
1, 2160, Note_on_c, 0, 74, 64
1, 2160, Note_on_c, 0, 74, 64
1, 2160, Note_on_c, 0, 78, 64
1, 2160, Note_on_c, 0, 86, 64
1, 2160, Note_on_c, 0, 50, 64
1, 2160, Lyric_t, "D_maj_0 "
1, 2190, Note_on_c, 0, 50, 0
1, 2190, Note_on_c, 0, 54, 64
1, 2220, Note_on_c, 0, 54, 0
1, 2220, Note_on_c, 0, 57, 64
1, 2250, Note_on_c, 0, 57, 0
1, 2250, Note_on_c, 0, 62, 64
1, 2280, Note_on_c, 0, 62, 0
1, 2280, Note_on_c, 0, 86, 0
1, 2280, Note_on_c, 0, 74, 0
1, 2280, Note_on_c, 0, 74, 0
1, 2280, Note_on_c, 0, 78, 0
1, 2280, Note_on_c, 0, 70, 64
1, 2280, Note_on_c, 0, 79, 64
1, 2280, Note_on_c, 0, 82, 64
1, 2280, Lyric_t, "Eb_maj_0 "
1, 2310, Note_on_c, 0, 51, 64
1, 2340, Note_on_c, 0, 51, 0
1, 2340, Note_on_c, 0, 55, 64
1, 2370, Note_on_c, 0, 55, 0
1, 2370, Note_on_c, 0, 63, 64
1, 2400, Note_on_c, 0, 63, 0
1, 2400, Note_on_c, 0, 70, 0
1, 2400, Note_on_c, 0, 79, 0
1, 2400, Note_on_c, 0, 82, 0
1, 2400, Note_on_c, 0, 69, 64
1, 2400, Note_on_c, 0, 81, 64
1, 2400, Note_on_c, 0, 75, 64
1, 2400, Note_on_c, 0, 79, 64
1, 2400, Note_on_c, 0, 48, 64
1, 2400, Lyric_t, "A_hdim_1 "
1, 2430, Note_on_c, 0, 48, 0
1, 2430, Note_on_c, 0, 51, 64
1, 2460, Note_on_c, 0, 51, 0
1, 2460, Note_on_c, 0, 55, 64
1, 2490, Note_on_c, 0, 55, 0
1, 2490, Note_on_c, 0, 57, 64
1, 2520, Note_on_c, 0, 57, 0
1, 2520, Note_on_c, 0, 79, 0
1, 2520, Note_on_c, 0, 75, 0
1, 2520, Note_on_c, 0, 69, 0
1, 2520, Note_on_c, 0, 74, 64
1, 2520, Note_on_c, 0, 74, 64
1, 2520, Note_on_c, 0, 78, 64
1, 2520, Note_on_c, 0, 50, 64
1, 2520, Lyric_t, "D_dom7_0 "
1, 2550, Note_on_c, 0, 50, 0
1, 2550, Note_on_c, 0, 54, 64
1, 2580, Note_on_c, 0, 54, 0
1, 2580, Note_on_c, 0, 74, 0
1, 2580, Note_on_c, 0, 74, 0
1, 2580, Note_on_c, 0, 74, 64
1, 2580, Note_on_c, 0, 72, 64
1, 2580, Note_on_c, 0, 57, 64
1, 2610, Note_on_c, 0, 57, 0
1, 2610, Note_on_c, 0, 62, 64
1, 2640, Note_on_c, 0, 62, 0
1, 2640, Note_on_c, 0, 72, 0
1, 2640, Note_on_c, 0, 78, 0
1, 2640, Note_on_c, 0, 81, 0
1, 2640, Note_on_c, 0, 74, 0
1, 2640, Note_on_c, 0, 67, 64
1, 2640, Note_on_c, 0, 79, 64
1, 2640, Note_on_c, 0, 70, 64
1, 2640, Note_on_c, 0, 43, 64
1, 2640, Lyric_t, "G_min_0 "
1, 2670, Note_on_c, 0, 43, 0
1, 2670, Note_on_c, 0, 50, 64
1, 2700, Note_on_c, 0, 50, 0
1, 2700, Note_on_c, 0, 70, 0
1, 2700, Note_on_c, 0, 79, 0
1, 2700, Note_on_c, 0, 55, 64
1, 2730, Note_on_c, 0, 55, 0
1, 2730, Note_on_c, 0, 58, 64
1, 2760, Note_on_c, 0, 58, 0
1, 2760, Note_on_c, 0, 67, 0
1, 2760, End_track
0, 0, End_of_file
