0, 0, Header, 0, 1, 120
1, 0, Start_track
1, 0, Title_t, "untitled"
1, 0, Time_signature, 4, 2, 24, 8
1, 0, Key_signature, 0, "major"
1, 0, Tempo, 375000
1, 0, Program_c, 0, 0
1, 0, Note_on_c, 0, 62, 64
1, 0, Note_on_c, 0, 74, 64
1, 0, Note_on_c, 0, 50, 64
1, 0, Lyric_t, "D_min_0 "
1, 39, Note_on_c, 0, 62, 64
1, 39, Note_on_c, 0, 74, 64
1, 39, Note_on_c, 0, 52, 64
1, 40, Note_on_c, 0, 50, 0
1, 40, Note_on_c, 0, 62, 0
1, 40, Note_on_c, 0, 74, 0
1, 79, Note_on_c, 0, 62, 0
1, 79, Note_on_c, 0, 74, 0
1, 79, Note_on_c, 0, 52, 0
1, 80, Note_on_c, 0, 62, 64
1, 80, Note_on_c, 0, 74, 64
1, 80, Note_on_c, 0, 53, 64
1, 120, Note_on_c, 0, 53, 0
1, 120, Note_on_c, 0, 74, 0
1, 120, Note_on_c, 0, 62, 0
1, 120, Note_on_c, 0, 62, 64
1, 120, Note_on_c, 0, 74, 64
1, 120, Note_on_c, 0, 55, 64
1, 159, Note_on_c, 0, 62, 64
1, 159, Note_on_c, 0, 74, 64
1, 159, Note_on_c, 0, 57, 64
1, 160, Note_on_c, 0, 55, 0
1, 160, Note_on_c, 0, 62, 0
1, 160, Note_on_c, 0, 74, 0
1, 199, Note_on_c, 0, 62, 0
1, 199, Note_on_c, 0, 74, 0
1, 199, Note_on_c, 0, 57, 0
1, 200, Note_on_c, 0, 62, 64
1, 200, Note_on_c, 0, 74, 64
1, 200, Note_on_c, 0, 58, 64
1, 240, Note_on_c, 0, 58, 0
1, 240, Note_on_c, 0, 74, 0
1, 240, Note_on_c, 0, 62, 0
1, 240, Note_on_c, 0, 62, 64
1, 240, Note_on_c, 0, 74, 64
1, 240, Note_on_c, 0, 57, 64
1, 279, Note_on_c, 0, 62, 64
1, 279, Note_on_c, 0, 74, 64
1, 280, Note_on_c, 0, 74, 0
1, 280, Note_on_c, 0, 62, 0
1, 319, Note_on_c, 0, 62, 0
1, 319, Note_on_c, 0, 74, 0
1, 320, Note_on_c, 0, 62, 64
1, 320, Note_on_c, 0, 74, 64
1, 360, Note_on_c, 0, 74, 0
1, 360, Note_on_c, 0, 62, 0
1, 360, Note_on_c, 0, 57, 0
1, 360, Note_on_c, 0, 62, 64
1, 360, Note_on_c, 0, 74, 64
1, 360, Note_on_c, 0, 53, 64
1, 399, Note_on_c, 0, 62, 64
1, 399, Note_on_c, 0, 74, 64
1, 400, Note_on_c, 0, 74, 0
1, 400, Note_on_c, 0, 62, 0
1, 439, Note_on_c, 0, 62, 0
1, 439, Note_on_c, 0, 74, 0
1, 440, Note_on_c, 0, 62, 64
1, 440, Note_on_c, 0, 74, 64
1, 480, Note_on_c, 0, 74, 0
1, 480, Note_on_c, 0, 62, 0
1, 480, Note_on_c, 0, 53, 0
1, 480, Note_on_c, 0, 62, 64
1, 480, Note_on_c, 0, 74, 64
1, 480, Note_on_c, 0, 50, 64
1, 519, Note_on_c, 0, 62, 64
1, 519, Note_on_c, 0, 74, 64
1, 520, Note_on_c, 0, 74, 0
1, 520, Note_on_c, 0, 62, 0
1, 559, Note_on_c, 0, 62, 0
1, 559, Note_on_c, 0, 74, 0
1, 560, Note_on_c, 0, 62, 64
1, 560, Note_on_c, 0, 74, 64
1, 600, Note_on_c, 0, 74, 0
1, 600, Note_on_c, 0, 62, 0
1, 600, Note_on_c, 0, 50, 0
1, 600, Note_on_c, 0, 62, 64
1, 600, Note_on_c, 0, 74, 64
1, 639, Note_on_c, 0, 62, 64
1, 639, Note_on_c, 0, 74, 64
1, 640, Note_on_c, 0, 74, 0
1, 640, Note_on_c, 0, 62, 0
1, 679, Note_on_c, 0, 62, 0
1, 679, Note_on_c, 0, 74, 0
1, 680, Note_on_c, 0, 62, 64
1, 680, Note_on_c, 0, 74, 64
1, 720, Note_on_c, 0, 74, 0
1, 720, Note_on_c, 0, 62, 0
1, 720, Note_on_c, 0, 62, 64
1, 720, Note_on_c, 0, 74, 64
1, 759, Note_on_c, 0, 62, 64
1, 759, Note_on_c, 0, 74, 64
1, 760, Note_on_c, 0, 74, 0
1, 760, Note_on_c, 0, 62, 0
1, 799, Note_on_c, 0, 62, 0
1, 799, Note_on_c, 0, 74, 0
1, 800, Note_on_c, 0, 62, 64
1, 800, Note_on_c, 0, 74, 64
1, 840, Note_on_c, 0, 74, 0
1, 840, Note_on_c, 0, 62, 0
1, 840, Note_on_c, 0, 62, 64
1, 840, Note_on_c, 0, 74, 64
1, 879, Note_on_c, 0, 62, 64
1, 879, Note_on_c, 0, 74, 64
1, 880, Note_on_c, 0, 74, 0
1, 880, Note_on_c, 0, 62, 0
1, 919, Note_on_c, 0, 62, 0
1, 919, Note_on_c, 0, 74, 0
1, 920, Note_on_c, 0, 62, 64
1, 920, Note_on_c, 0, 74, 64
1, 960, Note_on_c, 0, 74, 0
1, 960, Note_on_c, 0, 62, 0
1, 960, Note_on_c, 0, 62, 64
1, 960, Note_on_c, 0, 74, 64
1, 960, Note_on_c, 0, 50, 64
1, 999, Note_on_c, 0, 62, 64
1, 999, Note_on_c, 0, 74, 64
1, 999, Note_on_c, 0, 52, 64
1, 1000, Note_on_c, 0, 50, 0
1, 1000, Note_on_c, 0, 62, 0
1, 1000, Note_on_c, 0, 74, 0
1, 1039, Note_on_c, 0, 62, 0
1, 1039, Note_on_c, 0, 74, 0
1, 1039, Note_on_c, 0, 52, 0
1, 1040, Note_on_c, 0, 62, 64
1, 1040, Note_on_c, 0, 74, 64
1, 1040, Note_on_c, 0, 53, 64
1, 1080, Note_on_c, 0, 53, 0
1, 1080, Note_on_c, 0, 74, 0
1, 1080, Note_on_c, 0, 62, 0
1, 1080, Note_on_c, 0, 62, 64
1, 1080, Note_on_c, 0, 74, 64
1, 1080, Note_on_c, 0, 55, 64
1, 1119, Note_on_c, 0, 62, 64
1, 1119, Note_on_c, 0, 74, 64
1, 1119, Note_on_c, 0, 57, 64
1, 1120, Note_on_c, 0, 55, 0
1, 1120, Note_on_c, 0, 62, 0
1, 1120, Note_on_c, 0, 74, 0
1, 1159, Note_on_c, 0, 62, 0
1, 1159, Note_on_c, 0, 74, 0
1, 1159, Note_on_c, 0, 57, 0
1, 1160, Note_on_c, 0, 62, 64
1, 1160, Note_on_c, 0, 74, 64
1, 1160, Note_on_c, 0, 58, 64
1, 1200, Note_on_c, 0, 58, 0
1, 1200, Note_on_c, 0, 74, 0
1, 1200, Note_on_c, 0, 62, 0
1, 1200, Note_on_c, 0, 62, 64
1, 1200, Note_on_c, 0, 74, 64
1, 1200, Note_on_c, 0, 57, 64
1, 1239, Note_on_c, 0, 62, 64
1, 1239, Note_on_c, 0, 74, 64
1, 1240, Note_on_c, 0, 74, 0
1, 1240, Note_on_c, 0, 62, 0
1, 1279, Note_on_c, 0, 62, 0
1, 1279, Note_on_c, 0, 74, 0
1, 1280, Note_on_c, 0, 62, 64
1, 1280, Note_on_c, 0, 74, 64
1, 1320, Note_on_c, 0, 74, 0
1, 1320, Note_on_c, 0, 62, 0
1, 1320, Note_on_c, 0, 57, 0
1, 1320, Note_on_c, 0, 62, 64
1, 1320, Note_on_c, 0, 74, 64
1, 1320, Note_on_c, 0, 53, 64
1, 1359, Note_on_c, 0, 62, 64
1, 1359, Note_on_c, 0, 74, 64
1, 1360, Note_on_c, 0, 74, 0
1, 1360, Note_on_c, 0, 62, 0
1, 1399, Note_on_c, 0, 62, 0
1, 1399, Note_on_c, 0, 74, 0
1, 1400, Note_on_c, 0, 62, 64
1, 1400, Note_on_c, 0, 74, 64
1, 1440, Note_on_c, 0, 74, 0
1, 1440, Note_on_c, 0, 62, 0
1, 1440, Note_on_c, 0, 53, 0
1, 1440, Note_on_c, 0, 62, 64
1, 1440, Note_on_c, 0, 74, 64
1, 1440, Note_on_c, 0, 50, 64
1, 1479, Note_on_c, 0, 62, 64
1, 1479, Note_on_c, 0, 74, 64
1, 1480, Note_on_c, 0, 74, 0
1, 1480, Note_on_c, 0, 62, 0
1, 1519, Note_on_c, 0, 62, 0
1, 1519, Note_on_c, 0, 74, 0
1, 1520, Note_on_c, 0, 62, 64
1, 1520, Note_on_c, 0, 74, 64
1, 1560, Note_on_c, 0, 74, 0
1, 1560, Note_on_c, 0, 62, 0
1, 1560, Note_on_c, 0, 50, 0
1, 1560, Note_on_c, 0, 62, 64
1, 1560, Note_on_c, 0, 74, 64
1, 1599, Note_on_c, 0, 62, 64
1, 1599, Note_on_c, 0, 74, 64
1, 1600, Note_on_c, 0, 74, 0
1, 1600, Note_on_c, 0, 62, 0
1, 1639, Note_on_c, 0, 62, 0
1, 1639, Note_on_c, 0, 74, 0
1, 1640, Note_on_c, 0, 62, 64
1, 1640, Note_on_c, 0, 74, 64
1, 1680, Note_on_c, 0, 74, 0
1, 1680, Note_on_c, 0, 62, 0
1, 1680, Note_on_c, 0, 62, 64
1, 1680, Note_on_c, 0, 74, 64
1, 1719, Note_on_c, 0, 62, 64
1, 1719, Note_on_c, 0, 74, 64
1, 1720, Note_on_c, 0, 74, 0
1, 1720, Note_on_c, 0, 62, 0
1, 1759, Note_on_c, 0, 62, 0
1, 1759, Note_on_c, 0, 74, 0
1, 1760, Note_on_c, 0, 62, 64
1, 1760, Note_on_c, 0, 74, 64
1, 1800, Note_on_c, 0, 74, 0
1, 1800, Note_on_c, 0, 62, 0
1, 1800, Note_on_c, 0, 74, 64
1, 1800, Note_on_c, 0, 62, 64
1, 1800, Note_on_c, 0, 74, 64
1, 1839, Note_on_c, 0, 62, 64
1, 1839, Note_on_c, 0, 74, 64
1, 1840, Note_on_c, 0, 62, 0
1, 1840, Note_on_c, 0, 74, 0
1, 1879, Note_on_c, 0, 62, 0
1, 1880, Note_on_c, 0, 74, 0
1, 1880, Note_on_c, 0, 62, 64
1, 1880, Note_on_c, 0, 74, 64
1, 1919, Note_on_c, 0, 74, 0
1, 1920, Note_on_c, 0, 74, 0
1, 1920, Note_on_c, 0, 62, 0
1, 1920, Note_on_c, 0, 75, 64
1, 1920, Note_on_c, 0, 67, 64
1, 1920, Note_on_c, 0, 70, 64
1, 1920, Note_on_c, 0, 75, 64
1, 1920, Note_on_c, 0, 39, 64
1, 1920, Note_on_c, 0, 51, 64
1, 1920, Lyric_t, "Eb_maj_0 "
1, 1959, Note_on_c, 0, 67, 64
1, 1959, Note_on_c, 0, 70, 64
1, 1959, Note_on_c, 0, 75, 64
1, 1960, Note_on_c, 0, 70, 0
1, 1960, Note_on_c, 0, 75, 0
1, 1960, Note_on_c, 0, 67, 0
1, 1999, Note_on_c, 0, 70, 0
1, 1999, Note_on_c, 0, 67, 0
1, 2000, Note_on_c, 0, 75, 0
1, 2000, Note_on_c, 0, 67, 64
1, 2000, Note_on_c, 0, 70, 64
1, 2000, Note_on_c, 0, 75, 64
1, 2039, Note_on_c, 0, 75, 0
1, 2040, Note_on_c, 0, 70, 0
1, 2040, Note_on_c, 0, 67, 0
1, 2040, Note_on_c, 0, 67, 64
1, 2040, Note_on_c, 0, 70, 64
1, 2040, Note_on_c, 0, 75, 64
1, 2079, Note_on_c, 0, 67, 64
1, 2079, Note_on_c, 0, 70, 64
1, 2079, Note_on_c, 0, 75, 64
1, 2080, Note_on_c, 0, 70, 0
1, 2080, Note_on_c, 0, 67, 0
1, 2080, Note_on_c, 0, 75, 0
1, 2100, Note_on_c, 0, 75, 0
1, 2100, Note_on_c, 0, 70, 64
1, 2119, Note_on_c, 0, 75, 0
1, 2119, Note_on_c, 0, 70, 0
1, 2119, Note_on_c, 0, 67, 0
1, 2120, Note_on_c, 0, 67, 64
1, 2120, Note_on_c, 0, 70, 64
1, 2120, Note_on_c, 0, 75, 64
1, 2160, Note_on_c, 0, 75, 0
1, 2160, Note_on_c, 0, 67, 0
1, 2160, Note_on_c, 0, 70, 0
1, 2160, Note_on_c, 0, 70, 0
1, 2160, Note_on_c, 0, 70, 64
1, 2160, Note_on_c, 0, 67, 64
1, 2160, Note_on_c, 0, 70, 64
1, 2160, Note_on_c, 0, 75, 64
1, 2199, Note_on_c, 0, 67, 64
1, 2199, Note_on_c, 0, 70, 64
1, 2199, Note_on_c, 0, 75, 64
1, 2200, Note_on_c, 0, 75, 0
1, 2200, Note_on_c, 0, 70, 0
1, 2200, Note_on_c, 0, 67, 0
1, 2239, Note_on_c, 0, 75, 0
1, 2239, Note_on_c, 0, 67, 0
1, 2240, Note_on_c, 0, 70, 0
1, 2240, Note_on_c, 0, 67, 64
1, 2240, Note_on_c, 0, 70, 64
1, 2240, Note_on_c, 0, 75, 64
1, 2279, Note_on_c, 0, 70, 0
1, 2280, Note_on_c, 0, 70, 0
1, 2280, Note_on_c, 0, 67, 0
1, 2280, Note_on_c, 0, 75, 0
1, 2280, Note_on_c, 0, 75, 64
1, 2280, Note_on_c, 0, 67, 64
1, 2280, Note_on_c, 0, 70, 64
1, 2280, Note_on_c, 0, 75, 64
1, 2319, Note_on_c, 0, 67, 64
1, 2319, Note_on_c, 0, 70, 64
1, 2319, Note_on_c, 0, 75, 64
1, 2320, Note_on_c, 0, 70, 0
1, 2320, Note_on_c, 0, 67, 0
1, 2320, Note_on_c, 0, 75, 0
1, 2359, Note_on_c, 0, 70, 0
1, 2359, Note_on_c, 0, 67, 0
1, 2360, Note_on_c, 0, 75, 0
1, 2360, Note_on_c, 0, 67, 64
1, 2360, Note_on_c, 0, 70, 64
1, 2360, Note_on_c, 0, 75, 64
1, 2399, Note_on_c, 0, 75, 0
1, 2400, Note_on_c, 0, 39, 0
1, 2400, Note_on_c, 0, 67, 0
1, 2400, Note_on_c, 0, 51, 0
1, 2400, Note_on_c, 0, 75, 0
1, 2400, Note_on_c, 0, 70, 0
1, 2400, Note_on_c, 0, 74, 64
1, 2400, Note_on_c, 0, 65, 64
1, 2400, Note_on_c, 0, 68, 64
1, 2400, Note_on_c, 0, 71, 64
1, 2400, Note_on_c, 0, 74, 64
1, 2400, Note_on_c, 0, 39, 64
1, 2400, Note_on_c, 0, 51, 64
1, 2400, Lyric_t, "D_fdim_1 "
1, 2439, Note_on_c, 0, 65, 64
1, 2439, Note_on_c, 0, 68, 64
1, 2439, Note_on_c, 0, 71, 64
1, 2439, Note_on_c, 0, 74, 64
1, 2440, Note_on_c, 0, 71, 0
1, 2440, Note_on_c, 0, 68, 0
1, 2440, Note_on_c, 0, 74, 0
1, 2440, Note_on_c, 0, 65, 0
1, 2479, Note_on_c, 0, 65, 0
1, 2479, Note_on_c, 0, 68, 0
1, 2479, Note_on_c, 0, 71, 0
1, 2480, Note_on_c, 0, 74, 0
1, 2480, Note_on_c, 0, 65, 64
1, 2480, Note_on_c, 0, 68, 64
1, 2480, Note_on_c, 0, 71, 64
1, 2480, Note_on_c, 0, 74, 64
1, 2519, Note_on_c, 0, 74, 0
1, 2520, Note_on_c, 0, 71, 0
1, 2520, Note_on_c, 0, 68, 0
1, 2520, Note_on_c, 0, 65, 0
1, 2520, Note_on_c, 0, 74, 0
1, 2520, Note_on_c, 0, 74, 64
1, 2520, Note_on_c, 0, 65, 64
1, 2520, Note_on_c, 0, 68, 64
1, 2520, Note_on_c, 0, 71, 64
1, 2520, Note_on_c, 0, 74, 64
1, 2559, Note_on_c, 0, 65, 64
1, 2559, Note_on_c, 0, 68, 64
1, 2559, Note_on_c, 0, 71, 64
1, 2559, Note_on_c, 0, 74, 64
1, 2560, Note_on_c, 0, 71, 0
1, 2560, Note_on_c, 0, 65, 0
1, 2560, Note_on_c, 0, 74, 0
1, 2560, Note_on_c, 0, 68, 0
1, 2580, Note_on_c, 0, 74, 0
1, 2580, Note_on_c, 0, 75, 64
1, 2599, Note_on_c, 0, 71, 0
1, 2599, Note_on_c, 0, 68, 0
1, 2599, Note_on_c, 0, 74, 0
1, 2599, Note_on_c, 0, 65, 0
1, 2600, Note_on_c, 0, 65, 64
1, 2600, Note_on_c, 0, 68, 64
1, 2600, Note_on_c, 0, 71, 64
1, 2600, Note_on_c, 0, 74, 64
1, 2640, Note_on_c, 0, 74, 0
1, 2640, Note_on_c, 0, 68, 0
1, 2640, Note_on_c, 0, 65, 0
1, 2640, Note_on_c, 0, 75, 0
1, 2640, Note_on_c, 0, 71, 0
1, 2640, Note_on_c, 0, 77, 64
1, 2640, Note_on_c, 0, 65, 64
1, 2640, Note_on_c, 0, 68, 64
1, 2640, Note_on_c, 0, 71, 64
1, 2640, Note_on_c, 0, 74, 64
1, 2679, Note_on_c, 0, 65, 64
1, 2679, Note_on_c, 0, 68, 64
1, 2679, Note_on_c, 0, 71, 64
1, 2679, Note_on_c, 0, 74, 64
1, 2680, Note_on_c, 0, 74, 0
1, 2680, Note_on_c, 0, 65, 0
1, 2680, Note_on_c, 0, 71, 0
1, 2680, Note_on_c, 0, 68, 0
1, 2719, Note_on_c, 0, 71, 0
1, 2719, Note_on_c, 0, 68, 0
1, 2719, Note_on_c, 0, 74, 0
1, 2719, Note_on_c, 0, 65, 0
1, 2720, Note_on_c, 0, 65, 64
1, 2720, Note_on_c, 0, 68, 64
1, 2720, Note_on_c, 0, 71, 64
1, 2720, Note_on_c, 0, 74, 64
1, 2760, Note_on_c, 0, 74, 0
1, 2760, Note_on_c, 0, 68, 0
1, 2760, Note_on_c, 0, 65, 0
1, 2760, Note_on_c, 0, 77, 0
1, 2760, Note_on_c, 0, 71, 0
1, 2760, Note_on_c, 0, 75, 64
1, 2760, Note_on_c, 0, 65, 64
1, 2760, Note_on_c, 0, 68, 64
1, 2760, Note_on_c, 0, 71, 64
1, 2760, Note_on_c, 0, 74, 64
1, 2799, Note_on_c, 0, 65, 64
1, 2799, Note_on_c, 0, 68, 64
1, 2799, Note_on_c, 0, 71, 64
1, 2799, Note_on_c, 0, 74, 64
1, 2800, Note_on_c, 0, 74, 0
1, 2800, Note_on_c, 0, 65, 0
1, 2800, Note_on_c, 0, 71, 0
1, 2800, Note_on_c, 0, 68, 0
1, 2820, Note_on_c, 0, 75, 0
1, 2820, Note_on_c, 0, 74, 64
1, 2839, Note_on_c, 0, 71, 0
1, 2839, Note_on_c, 0, 68, 0
1, 2839, Note_on_c, 0, 74, 0
1, 2839, Note_on_c, 0, 65, 0
1, 2840, Note_on_c, 0, 65, 64
1, 2840, Note_on_c, 0, 68, 64
1, 2840, Note_on_c, 0, 71, 64
1, 2840, Note_on_c, 0, 74, 64
1, 2880, Note_on_c, 0, 74, 0
1, 2880, Note_on_c, 0, 68, 0
1, 2880, Note_on_c, 0, 74, 0
1, 2880, Note_on_c, 0, 51, 0
1, 2880, Note_on_c, 0, 39, 0
1, 2880, Note_on_c, 0, 71, 0
1, 2880, Note_on_c, 0, 65, 0
1, 2880, Note_on_c, 0, 75, 64
1, 2880, Note_on_c, 0, 67, 64
1, 2880, Note_on_c, 0, 70, 64
1, 2880, Note_on_c, 0, 75, 64
1, 2880, Note_on_c, 0, 39, 64
1, 2880, Note_on_c, 0, 51, 64
1, 2880, Lyric_t, "Eb_maj_0 "
1, 2919, Note_on_c, 0, 67, 64
1, 2919, Note_on_c, 0, 70, 64
1, 2919, Note_on_c, 0, 75, 64
1, 2920, Note_on_c, 0, 70, 0
1, 2920, Note_on_c, 0, 75, 0
1, 2920, Note_on_c, 0, 67, 0
1, 2959, Note_on_c, 0, 70, 0
1, 2959, Note_on_c, 0, 67, 0
1, 2960, Note_on_c, 0, 75, 0
1, 2960, Note_on_c, 0, 67, 64
1, 2960, Note_on_c, 0, 70, 64
1, 2960, Note_on_c, 0, 75, 64
1, 2999, Note_on_c, 0, 75, 0
1, 3000, Note_on_c, 0, 70, 0
1, 3000, Note_on_c, 0, 67, 0
1, 3000, Note_on_c, 0, 67, 64
1, 3000, Note_on_c, 0, 70, 64
1, 3000, Note_on_c, 0, 75, 64
1, 3039, Note_on_c, 0, 67, 64
1, 3039, Note_on_c, 0, 70, 64
1, 3039, Note_on_c, 0, 75, 64
1, 3040, Note_on_c, 0, 70, 0
1, 3040, Note_on_c, 0, 67, 0
1, 3040, Note_on_c, 0, 75, 0
1, 3079, Note_on_c, 0, 70, 0
1, 3079, Note_on_c, 0, 67, 0
1, 3080, Note_on_c, 0, 75, 0
1, 3080, Note_on_c, 0, 67, 64
1, 3080, Note_on_c, 0, 70, 64
1, 3080, Note_on_c, 0, 75, 64
1, 3119, Note_on_c, 0, 75, 0
1, 3120, Note_on_c, 0, 70, 0
1, 3120, Note_on_c, 0, 67, 0
1, 3120, Note_on_c, 0, 67, 64
1, 3120, Note_on_c, 0, 70, 64
1, 3120, Note_on_c, 0, 75, 64
1, 3159, Note_on_c, 0, 67, 64
1, 3159, Note_on_c, 0, 70, 64
1, 3159, Note_on_c, 0, 75, 64
1, 3160, Note_on_c, 0, 70, 0
1, 3160, Note_on_c, 0, 67, 0
1, 3160, Note_on_c, 0, 75, 0
1, 3199, Note_on_c, 0, 70, 0
1, 3199, Note_on_c, 0, 67, 0
1, 3200, Note_on_c, 0, 75, 0
1, 3200, Note_on_c, 0, 67, 64
1, 3200, Note_on_c, 0, 70, 64
1, 3200, Note_on_c, 0, 75, 64
1, 3239, Note_on_c, 0, 75, 0
1, 3240, Note_on_c, 0, 70, 0
1, 3240, Note_on_c, 0, 67, 0
1, 3240, Note_on_c, 0, 75, 0
1, 3240, Note_on_c, 0, 74, 64
1, 3240, Note_on_c, 0, 67, 64
1, 3240, Note_on_c, 0, 70, 64
1, 3240, Note_on_c, 0, 74, 64
1, 3279, Note_on_c, 0, 67, 64
1, 3279, Note_on_c, 0, 70, 64
1, 3279, Note_on_c, 0, 74, 64
1, 3280, Note_on_c, 0, 70, 0
1, 3280, Note_on_c, 0, 67, 0
1, 3280, Note_on_c, 0, 74, 0
1, 3319, Note_on_c, 0, 70, 0
1, 3319, Note_on_c, 0, 67, 0
1, 3320, Note_on_c, 0, 74, 0
1, 3320, Note_on_c, 0, 67, 64
1, 3320, Note_on_c, 0, 70, 64
1, 3320, Note_on_c, 0, 74, 64
1, 3359, Note_on_c, 0, 74, 0
1, 3360, Note_on_c, 0, 39, 0
1, 3360, Note_on_c, 0, 67, 0
1, 3360, Note_on_c, 0, 51, 0
1, 3360, Note_on_c, 0, 74, 0
1, 3360, Note_on_c, 0, 70, 0
1, 3360, Note_on_c, 0, 73, 64
1, 3360, Note_on_c, 0, 64, 64
1, 3360, Note_on_c, 0, 70, 64
1, 3360, Note_on_c, 0, 73, 64
1, 3360, Note_on_c, 0, 43, 64
1, 3360, Note_on_c, 0, 55, 64
1, 3360, Lyric_t, "C#_fdim_2 "
1, 3399, Note_on_c, 0, 64, 64
1, 3399, Note_on_c, 0, 70, 64
1, 3399, Note_on_c, 0, 73, 64
1, 3400, Note_on_c, 0, 70, 0
1, 3400, Note_on_c, 0, 73, 0
1, 3400, Note_on_c, 0, 64, 0
1, 3439, Note_on_c, 0, 70, 0
1, 3439, Note_on_c, 0, 64, 0
1, 3440, Note_on_c, 0, 73, 0
1, 3440, Note_on_c, 0, 64, 64
1, 3440, Note_on_c, 0, 70, 64
1, 3440, Note_on_c, 0, 73, 64
1, 3479, Note_on_c, 0, 73, 0
1, 3480, Note_on_c, 0, 70, 0
1, 3480, Note_on_c, 0, 64, 0
1, 3480, Note_on_c, 0, 64, 64
1, 3480, Note_on_c, 0, 70, 64
1, 3480, Note_on_c, 0, 73, 64
1, 3519, Note_on_c, 0, 64, 64
1, 3519, Note_on_c, 0, 70, 64
1, 3519, Note_on_c, 0, 73, 64
1, 3520, Note_on_c, 0, 70, 0
1, 3520, Note_on_c, 0, 64, 0
1, 3520, Note_on_c, 0, 73, 0
1, 3559, Note_on_c, 0, 70, 0
1, 3559, Note_on_c, 0, 64, 0
1, 3560, Note_on_c, 0, 73, 0
1, 3560, Note_on_c, 0, 64, 64
1, 3560, Note_on_c, 0, 70, 64
1, 3560, Note_on_c, 0, 73, 64
1, 3599, Note_on_c, 0, 73, 0
1, 3600, Note_on_c, 0, 70, 0
1, 3600, Note_on_c, 0, 64, 0
1, 3600, Note_on_c, 0, 73, 0
1, 3600, Note_on_c, 0, 73, 64
1, 3600, Note_on_c, 0, 64, 64
1, 3600, Note_on_c, 0, 70, 64
1, 3600, Note_on_c, 0, 73, 64
1, 3639, Note_on_c, 0, 64, 64
1, 3639, Note_on_c, 0, 70, 64
1, 3639, Note_on_c, 0, 73, 64
1, 3640, Note_on_c, 0, 70, 0
1, 3640, Note_on_c, 0, 64, 0
1, 3640, Note_on_c, 0, 73, 0
1, 3679, Note_on_c, 0, 70, 0
1, 3679, Note_on_c, 0, 64, 0
1, 3680, Note_on_c, 0, 73, 0
1, 3680, Note_on_c, 0, 64, 64
1, 3680, Note_on_c, 0, 70, 64
1, 3680, Note_on_c, 0, 73, 64
1, 3719, Note_on_c, 0, 73, 0
1, 3720, Note_on_c, 0, 70, 0
1, 3720, Note_on_c, 0, 64, 0
1, 3720, Note_on_c, 0, 73, 0
1, 3720, Note_on_c, 0, 73, 64
1, 3720, Note_on_c, 0, 64, 64
1, 3720, Note_on_c, 0, 70, 64
1, 3720, Note_on_c, 0, 73, 64
1, 3759, Note_on_c, 0, 64, 64
1, 3759, Note_on_c, 0, 70, 64
1, 3759, Note_on_c, 0, 73, 64
1, 3760, Note_on_c, 0, 70, 0
1, 3760, Note_on_c, 0, 64, 0
1, 3760, Note_on_c, 0, 73, 0
1, 3799, Note_on_c, 0, 70, 0
1, 3799, Note_on_c, 0, 64, 0
1, 3800, Note_on_c, 0, 73, 0
1, 3800, Note_on_c, 0, 64, 64
1, 3800, Note_on_c, 0, 70, 64
1, 3800, Note_on_c, 0, 73, 64
1, 3839, Note_on_c, 0, 73, 0
1, 3840, Note_on_c, 0, 43, 0
1, 3840, Note_on_c, 0, 64, 0
1, 3840, Note_on_c, 0, 55, 0
1, 3840, Note_on_c, 0, 73, 0
1, 3840, Note_on_c, 0, 70, 0
1, 3840, Note_on_c, 0, 74, 64
1, 3840, Note_on_c, 0, 65, 64
1, 3840, Note_on_c, 0, 71, 64
1, 3840, Note_on_c, 0, 74, 64
1, 3840, Note_on_c, 0, 44, 64
1, 3840, Note_on_c, 0, 56, 64
1, 3840, Lyric_t, "G#_fdim_0 "
1, 3879, Note_on_c, 0, 65, 64
1, 3879, Note_on_c, 0, 71, 64
1, 3879, Note_on_c, 0, 74, 64
1, 3880, Note_on_c, 0, 71, 0
1, 3880, Note_on_c, 0, 74, 0
1, 3880, Note_on_c, 0, 65, 0
1, 3919, Note_on_c, 0, 71, 0
1, 3919, Note_on_c, 0, 65, 0
1, 3920, Note_on_c, 0, 74, 0
1, 3920, Note_on_c, 0, 65, 64
1, 3920, Note_on_c, 0, 71, 64
1, 3920, Note_on_c, 0, 74, 64
1, 3959, Note_on_c, 0, 74, 0
1, 3960, Note_on_c, 0, 71, 0
1, 3960, Note_on_c, 0, 65, 0
1, 3960, Note_on_c, 0, 65, 64
1, 3960, Note_on_c, 0, 71, 64
1, 3960, Note_on_c, 0, 74, 64
1, 3999, Note_on_c, 0, 65, 64
1, 3999, Note_on_c, 0, 71, 64
1, 3999, Note_on_c, 0, 74, 64
1, 4000, Note_on_c, 0, 71, 0
1, 4000, Note_on_c, 0, 65, 0
1, 4000, Note_on_c, 0, 74, 0
1, 4039, Note_on_c, 0, 71, 0
1, 4039, Note_on_c, 0, 65, 0
1, 4040, Note_on_c, 0, 74, 0
1, 4040, Note_on_c, 0, 65, 64
1, 4040, Note_on_c, 0, 71, 64
1, 4040, Note_on_c, 0, 74, 64
1, 4079, Note_on_c, 0, 74, 0
1, 4080, Note_on_c, 0, 71, 0
1, 4080, Note_on_c, 0, 65, 0
1, 4080, Note_on_c, 0, 74, 0
1, 4080, Note_on_c, 0, 74, 64
1, 4080, Note_on_c, 0, 65, 64
1, 4080, Note_on_c, 0, 71, 64
1, 4080, Note_on_c, 0, 74, 64
1, 4119, Note_on_c, 0, 65, 64
1, 4119, Note_on_c, 0, 71, 64
1, 4119, Note_on_c, 0, 74, 64
1, 4120, Note_on_c, 0, 71, 0
1, 4120, Note_on_c, 0, 65, 0
1, 4120, Note_on_c, 0, 74, 0
1, 4159, Note_on_c, 0, 71, 0
1, 4159, Note_on_c, 0, 65, 0
1, 4160, Note_on_c, 0, 74, 0
1, 4160, Note_on_c, 0, 65, 64
1, 4160, Note_on_c, 0, 71, 64
1, 4160, Note_on_c, 0, 74, 64
1, 4199, Note_on_c, 0, 74, 0
1, 4200, Note_on_c, 0, 71, 0
1, 4200, Note_on_c, 0, 65, 0
1, 4200, Note_on_c, 0, 65, 64
1, 4200, Note_on_c, 0, 71, 64
1, 4200, Note_on_c, 0, 74, 64
1, 4239, Note_on_c, 0, 65, 64
1, 4239, Note_on_c, 0, 71, 64
1, 4239, Note_on_c, 0, 74, 64
1, 4240, Note_on_c, 0, 71, 0
1, 4240, Note_on_c, 0, 65, 0
1, 4240, Note_on_c, 0, 74, 0
1, 4260, Note_on_c, 0, 74, 0
1, 4260, Note_on_c, 0, 68, 64
1, 4279, Note_on_c, 0, 74, 0
1, 4279, Note_on_c, 0, 71, 0
1, 4279, Note_on_c, 0, 65, 0
1, 4280, Note_on_c, 0, 65, 64
1, 4280, Note_on_c, 0, 71, 64
1, 4280, Note_on_c, 0, 74, 64
1, 4320, Note_on_c, 0, 74, 0
1, 4320, Note_on_c, 0, 44, 0
1, 4320, Note_on_c, 0, 56, 0
1, 4320, Note_on_c, 0, 68, 0
1, 4320, Note_on_c, 0, 71, 0
1, 4320, Note_on_c, 0, 65, 0
1, 4320, Note_on_c, 0, 69, 64
1, 4320, Note_on_c, 0, 65, 64
1, 4320, Note_on_c, 0, 69, 64
1, 4320, Note_on_c, 0, 74, 64
1, 4320, Note_on_c, 0, 45, 64
1, 4320, Note_on_c, 0, 57, 64
1, 4320, Lyric_t, "D_min_2 "
1, 4359, Note_on_c, 0, 65, 64
1, 4359, Note_on_c, 0, 69, 64
1, 4359, Note_on_c, 0, 74, 64
1, 4360, Note_on_c, 0, 74, 0
1, 4360, Note_on_c, 0, 65, 0
1, 4360, Note_on_c, 0, 69, 0
1, 4399, Note_on_c, 0, 74, 0
1, 4399, Note_on_c, 0, 65, 0
1, 4400, Note_on_c, 0, 69, 0
1, 4400, Note_on_c, 0, 65, 64
1, 4400, Note_on_c, 0, 69, 64
1, 4400, Note_on_c, 0, 74, 64
1, 4439, Note_on_c, 0, 69, 0
1, 4440, Note_on_c, 0, 65, 0
1, 4440, Note_on_c, 0, 74, 0
1, 4440, Note_on_c, 0, 65, 64
1, 4440, Note_on_c, 0, 69, 64
1, 4440, Note_on_c, 0, 74, 64
1, 4479, Note_on_c, 0, 65, 64
1, 4479, Note_on_c, 0, 69, 64
1, 4479, Note_on_c, 0, 74, 64
1, 4480, Note_on_c, 0, 74, 0
1, 4480, Note_on_c, 0, 69, 0
1, 4480, Note_on_c, 0, 65, 0
1, 4519, Note_on_c, 0, 74, 0
1, 4519, Note_on_c, 0, 65, 0
1, 4520, Note_on_c, 0, 69, 0
1, 4520, Note_on_c, 0, 65, 64
1, 4520, Note_on_c, 0, 69, 64
1, 4520, Note_on_c, 0, 74, 64
1, 4559, Note_on_c, 0, 69, 0
1, 4560, Note_on_c, 0, 57, 0
1, 4560, Note_on_c, 0, 65, 0
1, 4560, Note_on_c, 0, 45, 0
1, 4560, Note_on_c, 0, 74, 0
1, 4560, Note_on_c, 0, 69, 0
1, 4560, Note_on_c, 0, 69, 64
1, 4560, Note_on_c, 0, 64, 64
1, 4560, Note_on_c, 0, 69, 64
1, 4560, Note_on_c, 0, 73, 64
1, 4560, Note_on_c, 0, 45, 64
1, 4560, Note_on_c, 0, 57, 64
1, 4560, Lyric_t, "A_maj_0 "
1, 4599, Note_on_c, 0, 64, 64
1, 4599, Note_on_c, 0, 69, 64
1, 4599, Note_on_c, 0, 73, 64
1, 4600, Note_on_c, 0, 73, 0
1, 4600, Note_on_c, 0, 64, 0
1, 4600, Note_on_c, 0, 69, 0
1, 4639, Note_on_c, 0, 73, 0
1, 4639, Note_on_c, 0, 64, 0
1, 4640, Note_on_c, 0, 69, 0
1, 4640, Note_on_c, 0, 64, 64
1, 4640, Note_on_c, 0, 69, 64
1, 4640, Note_on_c, 0, 73, 64
1, 4679, Note_on_c, 0, 69, 0
1, 4680, Note_on_c, 0, 64, 0
1, 4680, Note_on_c, 0, 73, 0
1, 4680, Note_on_c, 0, 64, 64
1, 4680, Note_on_c, 0, 69, 64
1, 4680, Note_on_c, 0, 73, 64
1, 4719, Note_on_c, 0, 64, 64
1, 4719, Note_on_c, 0, 69, 64
1, 4719, Note_on_c, 0, 73, 64
1, 4720, Note_on_c, 0, 73, 0
1, 4720, Note_on_c, 0, 69, 0
1, 4720, Note_on_c, 0, 64, 0
1, 4740, Note_on_c, 0, 69, 0
1, 4740, Note_on_c, 0, 69, 64
1, 4759, Note_on_c, 0, 73, 0
1, 4759, Note_on_c, 0, 69, 0
1, 4759, Note_on_c, 0, 64, 0
1, 4760, Note_on_c, 0, 64, 64
1, 4760, Note_on_c, 0, 69, 64
1, 4760, Note_on_c, 0, 73, 64
1, 4800, Note_on_c, 0, 73, 0
1, 4800, Note_on_c, 0, 57, 0
1, 4800, Note_on_c, 0, 45, 0
1, 4800, Note_on_c, 0, 69, 0
1, 4800, Note_on_c, 0, 69, 0
1, 4800, Note_on_c, 0, 64, 0
1, 4800, Note_on_c, 0, 62, 64
1, 4800, Note_on_c, 0, 65, 64
1, 4800, Note_on_c, 0, 69, 64
1, 4800, Note_on_c, 0, 74, 64
1, 4800, Note_on_c, 0, 38, 64
1, 4800, Note_on_c, 0, 50, 64
1, 4800, Lyric_t, "D_min_0 "
1, 4839, Note_on_c, 0, 65, 64
1, 4839, Note_on_c, 0, 77, 64
1, 4840, Note_on_c, 0, 74, 0
1, 4840, Note_on_c, 0, 69, 0
1, 4840, Note_on_c, 0, 65, 0
1, 4879, Note_on_c, 0, 77, 0
1, 4879, Note_on_c, 0, 65, 0
1, 4880, Note_on_c, 0, 65, 64
1, 4880, Note_on_c, 0, 77, 64
1, 4920, Note_on_c, 0, 77, 0
1, 4920, Note_on_c, 0, 65, 0
1, 4920, Note_on_c, 0, 65, 64
1, 4920, Note_on_c, 0, 77, 64
1, 4959, Note_on_c, 0, 65, 64
1, 4959, Note_on_c, 0, 77, 64
1, 4960, Note_on_c, 0, 77, 0
1, 4960, Note_on_c, 0, 65, 0
1, 4999, Note_on_c, 0, 65, 0
1, 4999, Note_on_c, 0, 77, 0
1, 5000, Note_on_c, 0, 65, 64
1, 5000, Note_on_c, 0, 77, 64
1, 5040, Note_on_c, 0, 77, 0
1, 5040, Note_on_c, 0, 62, 0
1, 5040, Note_on_c, 0, 38, 0
1, 5040, Note_on_c, 0, 50, 0
1, 5040, Note_on_c, 0, 65, 0
1, 5040, Note_on_c, 0, 65, 64
1, 5040, Note_on_c, 0, 77, 64
1, 5079, Note_on_c, 0, 65, 64
1, 5079, Note_on_c, 0, 77, 64
1, 5080, Note_on_c, 0, 77, 0
1, 5080, Note_on_c, 0, 65, 0
1, 5119, Note_on_c, 0, 65, 0
1, 5119, Note_on_c, 0, 77, 0
1, 5120, Note_on_c, 0, 65, 64
1, 5120, Note_on_c, 0, 77, 64
1, 5160, Note_on_c, 0, 77, 0
1, 5160, Note_on_c, 0, 65, 0
1, 5160, End_track
0, 0, End_of_file
