0, 0, Header, 0, 1, 120
1, 0, Start_track
1, 0, Title_t, "untitled"
1, 0, Time_signature, 2, 2, 24, 8
1, 0, Key_signature, 1, "major"
1, 0, Tempo, 1333333
1, 0, Program_c, 0, 0
1, 180, Note_on_c, 0, 59, 64
1, 180, Note_on_c, 0, 59, 64
1, 180, Note_on_c, 0, 63, 64
1, 180, Note_on_c, 0, 66, 64
1, 180, Note_on_c, 0, 47, 64
1, 180, Lyric_t, "B_maj_0 "
1, 210, Note_on_c, 0, 47, 0
1, 210, Note_on_c, 0, 63, 0
1, 210, Note_on_c, 0, 66, 0
1, 210, Note_on_c, 0, 59, 0
1, 210, Note_on_c, 0, 59, 64
1, 210, Note_on_c, 0, 63, 64
1, 210, Note_on_c, 0, 66, 64
1, 210, Note_on_c, 0, 47, 64
1, 240, Note_on_c, 0, 47, 0
1, 240, Note_on_c, 0, 63, 0
1, 240, Note_on_c, 0, 59, 0
1, 240, Note_on_c, 0, 59, 0
1, 240, Note_on_c, 0, 66, 0
1, 240, Note_on_c, 0, 64, 64
1, 240, Note_on_c, 0, 52, 64
1, 240, Lyric_t, "E_min_0 "
1, 300, Note_on_c, 0, 52, 0
1, 300, Note_on_c, 0, 59, 64
1, 300, Note_on_c, 0, 64, 64
1, 300, Note_on_c, 0, 67, 64
1, 330, Note_on_c, 0, 64, 0
1, 330, Note_on_c, 0, 66, 64
1, 360, Note_on_c, 0, 66, 0
1, 360, Note_on_c, 0, 67, 0
1, 360, Note_on_c, 0, 64, 0
1, 360, Note_on_c, 0, 59, 0
1, 360, Note_on_c, 0, 67, 64
1, 360, Note_on_c, 0, 55, 64
1, 420, Note_on_c, 0, 55, 0
1, 420, Note_on_c, 0, 59, 64
1, 420, Note_on_c, 0, 64, 64
1, 420, Note_on_c, 0, 67, 64
1, 450, Note_on_c, 0, 67, 0
1, 450, Note_on_c, 0, 69, 64
1, 480, Note_on_c, 0, 69, 0
1, 480, Note_on_c, 0, 67, 0
1, 480, Note_on_c, 0, 64, 0
1, 480, Note_on_c, 0, 59, 0
1, 480, Note_on_c, 0, 71, 64
1, 480, Note_on_c, 0, 59, 64
1, 480, Lyric_t, "B_maj_0 "
1, 525, Note_on_c, 0, 71, 0
1, 525, Note_on_c, 0, 72, 64
1, 540, Note_on_c, 0, 72, 0
1, 540, Note_on_c, 0, 59, 0
1, 540, Note_on_c, 0, 71, 64
1, 540, Note_on_c, 0, 59, 64
1, 540, Note_on_c, 0, 64, 64
1, 540, Note_on_c, 0, 66, 64
1, 600, Note_on_c, 0, 66, 0
1, 600, Note_on_c, 0, 71, 0
1, 600, Note_on_c, 0, 59, 0
1, 600, Note_on_c, 0, 64, 0
1, 600, Note_on_c, 0, 47, 64
1, 660, Note_on_c, 0, 47, 0
1, 660, Note_on_c, 0, 59, 64
1, 660, Note_on_c, 0, 59, 64
1, 660, Note_on_c, 0, 63, 64
1, 660, Note_on_c, 0, 66, 64
1, 720, Note_on_c, 0, 66, 0
1, 720, Note_on_c, 0, 59, 0
1, 720, Note_on_c, 0, 59, 0
1, 720, Note_on_c, 0, 63, 0
1, 720, Note_on_c, 0, 64, 64
1, 720, Note_on_c, 0, 52, 64
1, 720, Lyric_t, "E_min_0 "
1, 780, Note_on_c, 0, 52, 0
1, 780, Note_on_c, 0, 59, 64
1, 780, Note_on_c, 0, 64, 64
1, 780, Note_on_c, 0, 67, 64
1, 810, Note_on_c, 0, 64, 0
1, 810, Note_on_c, 0, 66, 64
1, 840, Note_on_c, 0, 66, 0
1, 840, Note_on_c, 0, 67, 0
1, 840, Note_on_c, 0, 64, 0
1, 840, Note_on_c, 0, 59, 0
1, 840, Note_on_c, 0, 67, 64
1, 840, Note_on_c, 0, 55, 64
1, 900, Note_on_c, 0, 55, 0
1, 900, Note_on_c, 0, 59, 64
1, 900, Note_on_c, 0, 64, 64
1, 900, Note_on_c, 0, 67, 64
1, 930, Note_on_c, 0, 67, 0
1, 930, Note_on_c, 0, 69, 64
1, 960, Note_on_c, 0, 69, 0
1, 960, Note_on_c, 0, 67, 0
1, 960, Note_on_c, 0, 64, 0
1, 960, Note_on_c, 0, 59, 0
1, 960, Note_on_c, 0, 71, 64
1, 960, Note_on_c, 0, 59, 64
1, 960, Lyric_t, "B_maj_0 "
1, 1020, Note_on_c, 0, 59, 0
1, 1020, Note_on_c, 0, 59, 64
1, 1020, Note_on_c, 0, 64, 64
1, 1020, Note_on_c, 0, 66, 64
1, 1080, Note_on_c, 0, 66, 0
1, 1080, Note_on_c, 0, 71, 0
1, 1080, Note_on_c, 0, 59, 0
1, 1080, Note_on_c, 0, 64, 0
1, 1080, Note_on_c, 0, 47, 64
1, 1140, Note_on_c, 0, 47, 0
1, 1140, Note_on_c, 0, 71, 64
1, 1140, Note_on_c, 0, 59, 64
1, 1140, Note_on_c, 0, 63, 64
1, 1140, Note_on_c, 0, 66, 64
1, 1200, Note_on_c, 0, 66, 0
1, 1200, Note_on_c, 0, 71, 0
1, 1200, Note_on_c, 0, 59, 0
1, 1200, Note_on_c, 0, 63, 0
1, 1200, Note_on_c, 0, 70, 64
1, 1200, Note_on_c, 0, 46, 64
1, 1200, Lyric_t, "D#_min_2 "
1, 1260, Note_on_c, 0, 46, 0
1, 1260, Note_on_c, 0, 58, 64
1, 1260, Note_on_c, 0, 63, 64
1, 1260, Note_on_c, 0, 66, 64
1, 1290, Note_on_c, 0, 70, 0
1, 1290, Note_on_c, 0, 70, 64
1, 1320, Note_on_c, 0, 70, 0
1, 1320, Note_on_c, 0, 66, 0
1, 1320, Note_on_c, 0, 63, 0
1, 1320, Note_on_c, 0, 58, 0
1, 1320, Note_on_c, 0, 75, 64
1, 1320, Note_on_c, 0, 46, 64
1, 1380, Note_on_c, 0, 46, 0
1, 1380, Note_on_c, 0, 58, 64
1, 1380, Note_on_c, 0, 63, 64
1, 1380, Note_on_c, 0, 66, 64
1, 1410, Note_on_c, 0, 75, 0
1, 1410, Note_on_c, 0, 70, 64
1, 1440, Note_on_c, 0, 70, 0
1, 1440, Note_on_c, 0, 66, 0
1, 1440, Note_on_c, 0, 63, 0
1, 1440, Note_on_c, 0, 58, 0
1, 1440, Note_on_c, 0, 70, 64
1, 1440, Note_on_c, 0, 46, 64
1, 1500, Note_on_c, 0, 46, 0
1, 1500, Note_on_c, 0, 70, 0
1, 1500, Note_on_c, 0, 70, 64
1, 1500, Note_on_c, 0, 58, 64
1, 1500, Note_on_c, 0, 63, 64
1, 1500, Note_on_c, 0, 66, 64
1, 1560, Note_on_c, 0, 66, 0
1, 1560, Note_on_c, 0, 70, 0
1, 1560, Note_on_c, 0, 58, 0
1, 1560, Note_on_c, 0, 63, 0
1, 1560, Note_on_c, 0, 46, 64
1, 1620, Note_on_c, 0, 46, 0
1, 1620, Note_on_c, 0, 70, 64
1, 1620, Note_on_c, 0, 58, 64
1, 1620, Note_on_c, 0, 63, 64
1, 1620, Note_on_c, 0, 66, 64
1, 1680, Note_on_c, 0, 66, 0
1, 1680, Note_on_c, 0, 70, 0
1, 1680, Note_on_c, 0, 58, 0
1, 1680, Note_on_c, 0, 63, 0
1, 1680, Note_on_c, 0, 71, 64
1, 1680, Note_on_c, 0, 44, 64
1, 1680, Lyric_t, "G#_min7_0 "
1, 1710, Note_on_c, 0, 71, 0
1, 1710, Note_on_c, 0, 70, 64
1, 1740, Note_on_c, 0, 70, 0
1, 1740, Note_on_c, 0, 44, 0
1, 1740, Note_on_c, 0, 71, 64
1, 1740, Note_on_c, 0, 59, 64
1, 1740, Note_on_c, 0, 63, 64
1, 1740, Note_on_c, 0, 66, 64
1, 1770, Note_on_c, 0, 71, 0
1, 1770, Note_on_c, 0, 75, 64
1, 1800, Note_on_c, 0, 75, 0
1, 1800, Note_on_c, 0, 66, 0
1, 1800, Note_on_c, 0, 63, 0
1, 1800, Note_on_c, 0, 59, 0
1, 1800, Note_on_c, 0, 70, 64
1, 1800, Note_on_c, 0, 58, 64
1, 1800, Note_on_c, 0, 63, 64
1, 1800, Note_on_c, 0, 66, 64
1, 1800, Note_on_c, 0, 46, 64
1, 1800, Lyric_t, "D#_min_2 "
1, 1860, Note_on_c, 0, 46, 0
1, 1860, Note_on_c, 0, 63, 0
1, 1860, Note_on_c, 0, 70, 0
1, 1860, Note_on_c, 0, 58, 0
1, 1860, Note_on_c, 0, 66, 0
1, 1860, Note_on_c, 0, 58, 64
1, 1860, Note_on_c, 0, 70, 64
1, 1860, Note_on_c, 0, 56, 64
1, 1860, Note_on_c, 0, 58, 64
1, 1860, Note_on_c, 0, 62, 64
1, 1860, Note_on_c, 0, 65, 64
1, 1860, Note_on_c, 0, 46, 64
1, 1860, Lyric_t, "A#_dom7_0 "
1, 1920, Note_on_c, 0, 46, 0
1, 1920, Note_on_c, 0, 62, 0
1, 1920, Note_on_c, 0, 70, 0
1, 1920, Note_on_c, 0, 56, 0
1, 1920, Note_on_c, 0, 58, 0
1, 1920, Note_on_c, 0, 65, 0
1, 1920, Note_on_c, 0, 58, 0
1, 1920, Note_on_c, 0, 63, 64
1, 1920, Note_on_c, 0, 39, 64
1, 1920, Lyric_t, "D#_min_0 "
1, 1980, Note_on_c, 0, 39, 0
1, 1980, Note_on_c, 0, 54, 64
1, 1980, Note_on_c, 0, 58, 64
1, 1980, Note_on_c, 0, 63, 64
1, 2040, Note_on_c, 0, 63, 0
1, 2040, Note_on_c, 0, 63, 0
1, 2040, Note_on_c, 0, 54, 0
1, 2040, Note_on_c, 0, 58, 0
1, 2040, End_track
0, 0, End_of_file
