0, 0, Header, 0, 1, 120
1, 0, Start_track
1, 0, Title_t, "untitled"
1, 0, Time_signature, 12, 4, 6, 8
1, 0, Key_signature, -1, "major"
1, 0, Tempo, 666667
1, 0, Program_c, 0, 0
1, 330, Note_on_c, 0, 65, 64
1, 330, Lyric_t, "D_min_0 "
1, 360, Note_on_c, 0, 65, 0
1, 360, Note_on_c, 0, 65, 64
1, 360, Note_on_c, 0, 38, 64
1, 360, Note_on_c, 0, 50, 64
1, 390, Note_on_c, 0, 57, 64
1, 390, Note_on_c, 0, 62, 64
1, 390, Note_on_c, 0, 65, 64
1, 420, Note_on_c, 0, 62, 0
1, 420, Note_on_c, 0, 57, 0
1, 420, Note_on_c, 0, 65, 0
1, 420, Note_on_c, 0, 57, 64
1, 420, Note_on_c, 0, 62, 64
1, 420, Note_on_c, 0, 65, 64
1, 450, Note_on_c, 0, 62, 0
1, 450, Note_on_c, 0, 57, 0
1, 450, Note_on_c, 0, 65, 0
1, 450, Note_on_c, 0, 57, 64
1, 450, Note_on_c, 0, 62, 64
1, 450, Note_on_c, 0, 65, 64
1, 480, Note_on_c, 0, 65, 0
1, 480, Note_on_c, 0, 57, 0
1, 480, Note_on_c, 0, 65, 0
1, 480, Note_on_c, 0, 62, 0
1, 480, Note_on_c, 0, 64, 64
1, 480, Note_on_c, 0, 57, 64
1, 480, Note_on_c, 0, 62, 64
1, 480, Note_on_c, 0, 65, 64
1, 510, Note_on_c, 0, 65, 0
1, 510, Note_on_c, 0, 57, 0
1, 510, Note_on_c, 0, 64, 0
1, 510, Note_on_c, 0, 62, 0
1, 510, Note_on_c, 0, 65, 64
1, 510, Note_on_c, 0, 57, 64
1, 510, Note_on_c, 0, 62, 64
1, 510, Note_on_c, 0, 65, 64
1, 540, Note_on_c, 0, 65, 0
1, 540, Note_on_c, 0, 50, 0
1, 540, Note_on_c, 0, 65, 0
1, 540, Note_on_c, 0, 38, 0
1, 540, Note_on_c, 0, 62, 0
1, 540, Note_on_c, 0, 57, 0
1, 540, Note_on_c, 0, 67, 64
1, 540, Note_on_c, 0, 36, 64
1, 540, Note_on_c, 0, 48, 64
1, 540, Lyric_t, "C_min7_0 "
1, 570, Note_on_c, 0, 58, 64
1, 570, Note_on_c, 0, 63, 64
1, 570, Note_on_c, 0, 67, 64
1, 600, Note_on_c, 0, 63, 0
1, 600, Note_on_c, 0, 58, 0
1, 600, Note_on_c, 0, 67, 0
1, 600, Note_on_c, 0, 58, 64
1, 600, Note_on_c, 0, 63, 64
1, 600, Note_on_c, 0, 67, 64
1, 630, Note_on_c, 0, 63, 0
1, 630, Note_on_c, 0, 58, 0
1, 630, Note_on_c, 0, 67, 0
1, 630, Note_on_c, 0, 58, 64
1, 630, Note_on_c, 0, 63, 64
1, 630, Note_on_c, 0, 67, 64
1, 660, Note_on_c, 0, 67, 0
1, 660, Note_on_c, 0, 58, 0
1, 660, Note_on_c, 0, 67, 0
1, 660, Note_on_c, 0, 63, 0
1, 660, Note_on_c, 0, 67, 64
1, 660, Note_on_c, 0, 58, 64
1, 660, Note_on_c, 0, 63, 64
1, 660, Note_on_c, 0, 67, 64
1, 690, Note_on_c, 0, 67, 0
1, 690, Note_on_c, 0, 58, 0
1, 690, Note_on_c, 0, 67, 0
1, 690, Note_on_c, 0, 63, 0
1, 690, Note_on_c, 0, 67, 64
1, 690, Note_on_c, 0, 58, 64
1, 690, Note_on_c, 0, 63, 64
1, 690, Note_on_c, 0, 67, 64
1, 720, Note_on_c, 0, 67, 0
1, 720, Note_on_c, 0, 48, 0
1, 720, Note_on_c, 0, 67, 0
1, 720, Note_on_c, 0, 36, 0
1, 720, Note_on_c, 0, 63, 0
1, 720, Note_on_c, 0, 58, 0
1, 720, Note_on_c, 0, 69, 64
1, 720, Note_on_c, 0, 41, 64
1, 720, Note_on_c, 0, 53, 64
1, 720, Lyric_t, "F_dom7_0 "
1, 750, Note_on_c, 0, 60, 64
1, 750, Note_on_c, 0, 63, 64
1, 750, Note_on_c, 0, 69, 64
1, 780, Note_on_c, 0, 63, 0
1, 780, Note_on_c, 0, 60, 0
1, 780, Note_on_c, 0, 69, 0
1, 780, Note_on_c, 0, 60, 64
1, 780, Note_on_c, 0, 63, 64
1, 780, Note_on_c, 0, 69, 64
1, 810, Note_on_c, 0, 63, 0
1, 810, Note_on_c, 0, 60, 0
1, 810, Note_on_c, 0, 69, 0
1, 810, Note_on_c, 0, 60, 64
1, 810, Note_on_c, 0, 63, 64
1, 810, Note_on_c, 0, 69, 64
1, 840, Note_on_c, 0, 69, 0
1, 840, Note_on_c, 0, 60, 0
1, 840, Note_on_c, 0, 69, 0
1, 840, Note_on_c, 0, 63, 0
1, 840, Note_on_c, 0, 67, 64
1, 840, Note_on_c, 0, 60, 64
1, 840, Note_on_c, 0, 63, 64
1, 840, Note_on_c, 0, 69, 64
1, 870, Note_on_c, 0, 69, 0
1, 870, Note_on_c, 0, 60, 0
1, 870, Note_on_c, 0, 67, 0
1, 870, Note_on_c, 0, 63, 0
1, 870, Note_on_c, 0, 65, 64
1, 870, Note_on_c, 0, 60, 64
1, 870, Note_on_c, 0, 63, 64
1, 870, Note_on_c, 0, 69, 64
1, 900, Note_on_c, 0, 69, 0
1, 900, Note_on_c, 0, 53, 0
1, 900, Note_on_c, 0, 65, 0
1, 900, Note_on_c, 0, 41, 0
1, 900, Note_on_c, 0, 63, 0
1, 900, Note_on_c, 0, 60, 0
1, 900, Note_on_c, 0, 74, 64
1, 900, Note_on_c, 0, 34, 64
1, 900, Note_on_c, 0, 46, 64
1, 900, Lyric_t, "Bb_maj_0 "
1, 930, Note_on_c, 0, 62, 64
1, 930, Note_on_c, 0, 65, 64
1, 930, Note_on_c, 0, 70, 64
1, 930, Note_on_c, 0, 74, 64
1, 960, Note_on_c, 0, 70, 0
1, 960, Note_on_c, 0, 62, 0
1, 960, Note_on_c, 0, 74, 0
1, 960, Note_on_c, 0, 65, 0
1, 960, Note_on_c, 0, 62, 64
1, 960, Note_on_c, 0, 65, 64
1, 960, Note_on_c, 0, 70, 64
1, 960, Note_on_c, 0, 74, 64
1, 990, Note_on_c, 0, 74, 0
1, 990, Note_on_c, 0, 65, 0
1, 990, Note_on_c, 0, 62, 0
1, 990, Note_on_c, 0, 74, 0
1, 990, Note_on_c, 0, 70, 0
1, 990, Note_on_c, 0, 74, 64
1, 990, Note_on_c, 0, 62, 64
1, 990, Note_on_c, 0, 65, 64
1, 990, Note_on_c, 0, 70, 64
1, 990, Note_on_c, 0, 74, 64
1, 1020, Note_on_c, 0, 70, 0
1, 1020, Note_on_c, 0, 62, 0
1, 1020, Note_on_c, 0, 74, 0
1, 1020, Note_on_c, 0, 65, 0
1, 1020, Note_on_c, 0, 62, 64
1, 1020, Note_on_c, 0, 65, 64
1, 1020, Note_on_c, 0, 70, 64
1, 1020, Note_on_c, 0, 74, 64
1, 1050, Note_on_c, 0, 74, 0
1, 1050, Note_on_c, 0, 65, 0
1, 1050, Note_on_c, 0, 62, 0
1, 1050, Note_on_c, 0, 74, 0
1, 1050, Note_on_c, 0, 70, 0
1, 1050, Note_on_c, 0, 74, 64
1, 1050, Note_on_c, 0, 62, 64
1, 1050, Note_on_c, 0, 65, 64
1, 1050, Note_on_c, 0, 70, 64
1, 1050, Note_on_c, 0, 74, 64
1, 1080, Note_on_c, 0, 74, 0
1, 1080, Note_on_c, 0, 65, 0
1, 1080, Note_on_c, 0, 62, 0
1, 1080, Note_on_c, 0, 74, 0
1, 1080, Note_on_c, 0, 70, 0
1, 1080, Note_on_c, 0, 74, 64
1, 1080, Lyric_t, "X_ger6_0 "
1, 1110, Note_on_c, 0, 34, 0
1, 1110, Note_on_c, 0, 46, 0
1, 1110, Note_on_c, 0, 65, 64
1, 1110, Note_on_c, 0, 68, 64
1, 1110, Note_on_c, 0, 74, 64
1, 1110, Note_on_c, 0, 58, 64
1, 1110, Note_on_c, 0, 62, 64
1, 1140, Note_on_c, 0, 62, 0
1, 1140, Note_on_c, 0, 65, 0
1, 1140, Note_on_c, 0, 74, 0
1, 1140, Note_on_c, 0, 68, 0
1, 1140, Note_on_c, 0, 58, 0
1, 1140, Note_on_c, 0, 65, 64
1, 1140, Note_on_c, 0, 68, 64
1, 1140, Note_on_c, 0, 74, 64
1, 1140, Note_on_c, 0, 58, 64
1, 1140, Note_on_c, 0, 62, 64
1, 1170, Note_on_c, 0, 62, 0
1, 1170, Note_on_c, 0, 65, 0
1, 1170, Note_on_c, 0, 68, 0
1, 1170, Note_on_c, 0, 74, 0
1, 1170, Note_on_c, 0, 58, 0
1, 1170, Note_on_c, 0, 74, 0
1, 1170, Note_on_c, 0, 74, 64
1, 1170, Note_on_c, 0, 65, 64
1, 1170, Note_on_c, 0, 68, 64
1, 1170, Note_on_c, 0, 74, 64
1, 1170, Note_on_c, 0, 58, 64
1, 1170, Note_on_c, 0, 62, 64
1, 1200, Note_on_c, 0, 62, 0
1, 1200, Note_on_c, 0, 65, 0
1, 1200, Note_on_c, 0, 74, 0
1, 1200, Note_on_c, 0, 68, 0
1, 1200, Note_on_c, 0, 58, 0
1, 1200, Note_on_c, 0, 65, 64
1, 1200, Note_on_c, 0, 68, 64
1, 1200, Note_on_c, 0, 74, 64
1, 1200, Note_on_c, 0, 58, 64
1, 1200, Note_on_c, 0, 62, 64
1, 1230, Note_on_c, 0, 62, 0
1, 1230, Note_on_c, 0, 65, 0
1, 1230, Note_on_c, 0, 68, 0
1, 1230, Note_on_c, 0, 74, 0
1, 1230, Note_on_c, 0, 58, 0
1, 1230, Note_on_c, 0, 74, 0
1, 1230, Note_on_c, 0, 74, 64
1, 1230, Note_on_c, 0, 65, 64
1, 1230, Note_on_c, 0, 68, 64
1, 1230, Note_on_c, 0, 74, 64
1, 1230, Note_on_c, 0, 58, 64
1, 1230, Note_on_c, 0, 62, 64
1, 1260, Note_on_c, 0, 62, 0
1, 1260, Note_on_c, 0, 65, 0
1, 1260, Note_on_c, 0, 68, 0
1, 1260, Note_on_c, 0, 74, 0
1, 1260, Note_on_c, 0, 58, 0
1, 1260, Note_on_c, 0, 74, 0
1, 1260, Note_on_c, 0, 77, 64
1, 1260, Lyric_t, "D_min_2 "
1, 1290, Note_on_c, 0, 65, 64
1, 1290, Note_on_c, 0, 69, 64
1, 1290, Note_on_c, 0, 74, 64
1, 1290, Note_on_c, 0, 77, 64
1, 1290, Note_on_c, 0, 57, 64
1, 1290, Note_on_c, 0, 62, 64
1, 1320, Note_on_c, 0, 62, 0
1, 1320, Note_on_c, 0, 74, 0
1, 1320, Note_on_c, 0, 65, 0
1, 1320, Note_on_c, 0, 69, 0
1, 1320, Note_on_c, 0, 77, 0
1, 1320, Note_on_c, 0, 57, 0
1, 1320, Note_on_c, 0, 65, 64
1, 1320, Note_on_c, 0, 69, 64
1, 1320, Note_on_c, 0, 74, 64
1, 1320, Note_on_c, 0, 77, 64
1, 1320, Note_on_c, 0, 57, 64
1, 1320, Note_on_c, 0, 62, 64
1, 1350, Note_on_c, 0, 62, 0
1, 1350, Note_on_c, 0, 74, 0
1, 1350, Note_on_c, 0, 65, 0
1, 1350, Note_on_c, 0, 69, 0
1, 1350, Note_on_c, 0, 77, 0
1, 1350, Note_on_c, 0, 57, 0
1, 1350, Note_on_c, 0, 65, 64
1, 1350, Note_on_c, 0, 69, 64
1, 1350, Note_on_c, 0, 74, 64
1, 1350, Note_on_c, 0, 77, 64
1, 1350, Note_on_c, 0, 57, 64
1, 1350, Note_on_c, 0, 62, 64
1, 1380, Note_on_c, 0, 62, 0
1, 1380, Note_on_c, 0, 77, 0
1, 1380, Note_on_c, 0, 65, 0
1, 1380, Note_on_c, 0, 69, 0
1, 1380, Note_on_c, 0, 77, 0
1, 1380, Note_on_c, 0, 57, 0
1, 1380, Note_on_c, 0, 74, 0
1, 1380, Note_on_c, 0, 76, 64
1, 1380, Note_on_c, 0, 65, 64
1, 1380, Note_on_c, 0, 69, 64
1, 1380, Note_on_c, 0, 74, 64
1, 1380, Note_on_c, 0, 77, 64
1, 1380, Note_on_c, 0, 57, 64
1, 1380, Note_on_c, 0, 62, 64
1, 1410, Note_on_c, 0, 62, 0
1, 1410, Note_on_c, 0, 77, 0
1, 1410, Note_on_c, 0, 65, 0
1, 1410, Note_on_c, 0, 69, 0
1, 1410, Note_on_c, 0, 76, 0
1, 1410, Note_on_c, 0, 57, 0
1, 1410, Note_on_c, 0, 74, 0
1, 1410, Note_on_c, 0, 74, 64
1, 1410, Note_on_c, 0, 65, 64
1, 1410, Note_on_c, 0, 69, 64
1, 1410, Note_on_c, 0, 74, 64
1, 1410, Note_on_c, 0, 77, 64
1, 1410, Note_on_c, 0, 57, 64
1, 1410, Note_on_c, 0, 62, 64
1, 1440, Note_on_c, 0, 62, 0
1, 1440, Note_on_c, 0, 77, 0
1, 1440, Note_on_c, 0, 65, 0
1, 1440, Note_on_c, 0, 69, 0
1, 1440, Note_on_c, 0, 74, 0
1, 1440, Note_on_c, 0, 57, 0
1, 1440, Note_on_c, 0, 74, 0
1, 1440, Note_on_c, 0, 69, 64
1, 1440, Lyric_t, "A_dom7_0 "
1, 1470, Note_on_c, 0, 61, 64
1, 1470, Note_on_c, 0, 67, 64
1, 1470, Note_on_c, 0, 69, 64
1, 1470, Note_on_c, 0, 57, 64
1, 1470, Note_on_c, 0, 64, 64
1, 1500, Note_on_c, 0, 64, 0
1, 1500, Note_on_c, 0, 61, 0
1, 1500, Note_on_c, 0, 69, 0
1, 1500, Note_on_c, 0, 67, 0
1, 1500, Note_on_c, 0, 57, 0
1, 1500, Note_on_c, 0, 61, 64
1, 1500, Note_on_c, 0, 67, 64
1, 1500, Note_on_c, 0, 69, 64
1, 1500, Note_on_c, 0, 57, 64
1, 1500, Note_on_c, 0, 64, 64
1, 1530, Note_on_c, 0, 64, 0
1, 1530, Note_on_c, 0, 61, 0
1, 1530, Note_on_c, 0, 69, 0
1, 1530, Note_on_c, 0, 67, 0
1, 1530, Note_on_c, 0, 57, 0
1, 1530, Note_on_c, 0, 61, 64
1, 1530, Note_on_c, 0, 67, 64
1, 1530, Note_on_c, 0, 69, 64
1, 1530, Note_on_c, 0, 57, 64
1, 1530, Note_on_c, 0, 64, 64
1, 1560, Note_on_c, 0, 64, 0
1, 1560, Note_on_c, 0, 61, 0
1, 1560, Note_on_c, 0, 67, 0
1, 1560, Note_on_c, 0, 69, 0
1, 1560, Note_on_c, 0, 57, 0
1, 1560, Note_on_c, 0, 69, 0
1, 1560, Note_on_c, 0, 71, 64
1, 1560, Note_on_c, 0, 61, 64
1, 1560, Note_on_c, 0, 67, 64
1, 1560, Note_on_c, 0, 69, 64
1, 1560, Note_on_c, 0, 57, 64
1, 1560, Note_on_c, 0, 64, 64
1, 1590, Note_on_c, 0, 64, 0
1, 1590, Note_on_c, 0, 61, 0
1, 1590, Note_on_c, 0, 67, 0
1, 1590, Note_on_c, 0, 71, 0
1, 1590, Note_on_c, 0, 57, 0
1, 1590, Note_on_c, 0, 69, 0
1, 1590, Note_on_c, 0, 73, 64
1, 1590, Note_on_c, 0, 61, 64
1, 1590, Note_on_c, 0, 67, 64
1, 1590, Note_on_c, 0, 69, 64
1, 1590, Note_on_c, 0, 57, 64
1, 1590, Note_on_c, 0, 64, 64
1, 1620, Note_on_c, 0, 64, 0
1, 1620, Note_on_c, 0, 61, 0
1, 1620, Note_on_c, 0, 67, 0
1, 1620, Note_on_c, 0, 73, 0
1, 1620, Note_on_c, 0, 57, 0
1, 1620, Note_on_c, 0, 69, 0
1, 1620, Note_on_c, 0, 74, 64
1, 1620, Lyric_t, "D_min_0 "
1, 1650, Note_on_c, 0, 62, 64
1, 1650, Note_on_c, 0, 65, 64
1, 1650, Note_on_c, 0, 69, 64
1, 1650, Note_on_c, 0, 50, 64
1, 1650, Note_on_c, 0, 57, 64
1, 1680, Note_on_c, 0, 57, 0
1, 1680, Note_on_c, 0, 62, 0
1, 1680, Note_on_c, 0, 65, 0
1, 1680, Note_on_c, 0, 69, 0
1, 1680, Note_on_c, 0, 50, 0
1, 1680, Note_on_c, 0, 62, 64
1, 1680, Note_on_c, 0, 65, 64
1, 1680, Note_on_c, 0, 69, 64
1, 1680, Note_on_c, 0, 50, 64
1, 1680, Note_on_c, 0, 57, 64
1, 1710, Note_on_c, 0, 57, 0
1, 1710, Note_on_c, 0, 62, 0
1, 1710, Note_on_c, 0, 65, 0
1, 1710, Note_on_c, 0, 74, 0
1, 1710, Note_on_c, 0, 50, 0
1, 1710, Note_on_c, 0, 69, 0
1, 1710, Note_on_c, 0, 62, 64
1, 1710, Note_on_c, 0, 65, 64
1, 1710, Note_on_c, 0, 69, 64
1, 1710, Note_on_c, 0, 50, 64
1, 1710, Note_on_c, 0, 57, 64
1, 1740, Note_on_c, 0, 57, 0
1, 1740, Note_on_c, 0, 69, 0
1, 1740, Note_on_c, 0, 62, 0
1, 1740, Note_on_c, 0, 65, 0
1, 1740, Note_on_c, 0, 50, 0
1, 1740, Note_on_c, 0, 62, 64
1, 1740, Note_on_c, 0, 65, 64
1, 1740, Note_on_c, 0, 69, 64
1, 1740, Note_on_c, 0, 50, 64
1, 1740, Note_on_c, 0, 57, 64
1, 1770, Note_on_c, 0, 57, 0
1, 1770, Note_on_c, 0, 69, 0
1, 1770, Note_on_c, 0, 62, 0
1, 1770, Note_on_c, 0, 65, 0
1, 1770, Note_on_c, 0, 50, 0
1, 1770, Note_on_c, 0, 74, 64
1, 1770, Note_on_c, 0, 62, 64
1, 1770, Note_on_c, 0, 65, 64
1, 1770, Note_on_c, 0, 69, 64
1, 1770, Note_on_c, 0, 50, 64
1, 1770, Note_on_c, 0, 57, 64
1, 1800, Note_on_c, 0, 57, 0
1, 1800, Note_on_c, 0, 62, 0
1, 1800, Note_on_c, 0, 65, 0
1, 1800, Note_on_c, 0, 74, 0
1, 1800, Note_on_c, 0, 50, 0
1, 1800, Note_on_c, 0, 69, 0
1, 1800, Note_on_c, 0, 74, 64
1, 1800, Note_on_c, 0, 43, 64
1, 1800, Note_on_c, 0, 55, 64
1, 1800, Lyric_t, "G_dom7_0 "
1, 1830, Note_on_c, 0, 59, 64
1, 1830, Note_on_c, 0, 65, 64
1, 1830, Note_on_c, 0, 67, 64
1, 1860, Note_on_c, 0, 67, 0
1, 1860, Note_on_c, 0, 59, 0
1, 1860, Note_on_c, 0, 65, 0
1, 1860, Note_on_c, 0, 59, 64
1, 1860, Note_on_c, 0, 65, 64
1, 1860, Note_on_c, 0, 67, 64
1, 1890, Note_on_c, 0, 67, 0
1, 1890, Note_on_c, 0, 59, 0
1, 1890, Note_on_c, 0, 74, 0
1, 1890, Note_on_c, 0, 65, 0
1, 1890, Note_on_c, 0, 74, 64
1, 1890, Note_on_c, 0, 59, 64
1, 1890, Note_on_c, 0, 65, 64
1, 1890, Note_on_c, 0, 67, 64
1, 1920, Note_on_c, 0, 67, 0
1, 1920, Note_on_c, 0, 59, 0
1, 1920, Note_on_c, 0, 65, 0
1, 1920, Note_on_c, 0, 59, 64
1, 1920, Note_on_c, 0, 65, 64
1, 1920, Note_on_c, 0, 67, 64
1, 1950, Note_on_c, 0, 67, 0
1, 1950, Note_on_c, 0, 59, 0
1, 1950, Note_on_c, 0, 74, 0
1, 1950, Note_on_c, 0, 65, 0
1, 1950, Note_on_c, 0, 74, 64
1, 1950, Note_on_c, 0, 59, 64
1, 1950, Note_on_c, 0, 65, 64
1, 1950, Note_on_c, 0, 67, 64
1, 1980, Note_on_c, 0, 67, 0
1, 1980, Note_on_c, 0, 55, 0
1, 1980, Note_on_c, 0, 74, 0
1, 1980, Note_on_c, 0, 43, 0
1, 1980, Note_on_c, 0, 65, 0
1, 1980, Note_on_c, 0, 59, 0
1, 1980, Note_on_c, 0, 74, 64
1, 1980, Note_on_c, 0, 36, 64
1, 1980, Note_on_c, 0, 48, 64
1, 1980, Lyric_t, "C_dom7_0 "
1, 2010, Note_on_c, 0, 58, 64
1, 2010, Note_on_c, 0, 64, 64
1, 2010, Note_on_c, 0, 67, 64
1, 2025, Note_on_c, 0, 74, 0
1, 2025, Note_on_c, 0, 72, 64
1, 2040, Note_on_c, 0, 64, 0
1, 2040, Note_on_c, 0, 58, 0
1, 2040, Note_on_c, 0, 67, 0
1, 2040, Note_on_c, 0, 58, 64
1, 2040, Note_on_c, 0, 64, 64
1, 2040, Note_on_c, 0, 67, 64
1, 2070, Note_on_c, 0, 67, 0
1, 2070, Note_on_c, 0, 58, 0
1, 2070, Note_on_c, 0, 72, 0
1, 2070, Note_on_c, 0, 64, 0
1, 2070, Note_on_c, 0, 70, 64
1, 2070, Note_on_c, 0, 58, 64
1, 2070, Note_on_c, 0, 64, 64
1, 2070, Note_on_c, 0, 67, 64
1, 2100, Note_on_c, 0, 67, 0
1, 2100, Note_on_c, 0, 58, 0
1, 2100, Note_on_c, 0, 64, 0
1, 2100, Note_on_c, 0, 58, 64
1, 2100, Note_on_c, 0, 64, 64
1, 2100, Note_on_c, 0, 67, 64
1, 2115, Note_on_c, 0, 70, 0
1, 2115, Note_on_c, 0, 67, 64
1, 2130, Note_on_c, 0, 64, 0
1, 2130, Note_on_c, 0, 58, 0
1, 2130, Note_on_c, 0, 67, 0
1, 2130, Note_on_c, 0, 58, 64
1, 2130, Note_on_c, 0, 64, 64
1, 2130, Note_on_c, 0, 67, 64
1, 2160, Note_on_c, 0, 67, 0
1, 2160, Note_on_c, 0, 58, 0
1, 2160, Note_on_c, 0, 67, 0
1, 2160, Note_on_c, 0, 64, 0
1, 2160, Note_on_c, 0, 65, 64
1, 2160, Lyric_t, "F_maj_2 "
1, 2190, Note_on_c, 0, 57, 64
1, 2190, Note_on_c, 0, 60, 64
1, 2190, Note_on_c, 0, 65, 64
1, 2220, Note_on_c, 0, 60, 0
1, 2220, Note_on_c, 0, 57, 0
1, 2220, Note_on_c, 0, 65, 0
1, 2220, Note_on_c, 0, 57, 64
1, 2220, Note_on_c, 0, 60, 64
1, 2220, Note_on_c, 0, 65, 64
1, 2250, Note_on_c, 0, 60, 0
1, 2250, Note_on_c, 0, 57, 0
1, 2250, Note_on_c, 0, 65, 0
1, 2250, Note_on_c, 0, 57, 64
1, 2250, Note_on_c, 0, 60, 64
1, 2250, Note_on_c, 0, 65, 64
1, 2280, Note_on_c, 0, 65, 0
1, 2280, Note_on_c, 0, 57, 0
1, 2280, Note_on_c, 0, 65, 0
1, 2280, Note_on_c, 0, 60, 0
1, 2280, Note_on_c, 0, 67, 64
1, 2280, Note_on_c, 0, 57, 64
1, 2280, Note_on_c, 0, 60, 64
1, 2280, Note_on_c, 0, 65, 64
1, 2310, Note_on_c, 0, 65, 0
1, 2310, Note_on_c, 0, 57, 0
1, 2310, Note_on_c, 0, 67, 0
1, 2310, Note_on_c, 0, 60, 0
1, 2310, Note_on_c, 0, 69, 64
1, 2310, Note_on_c, 0, 57, 64
1, 2310, Note_on_c, 0, 60, 64
1, 2310, Note_on_c, 0, 65, 64
1, 2340, Note_on_c, 0, 65, 0
1, 2340, Note_on_c, 0, 48, 0
1, 2340, Note_on_c, 0, 69, 0
1, 2340, Note_on_c, 0, 57, 0
1, 2340, Note_on_c, 0, 60, 0
1, 2340, Note_on_c, 0, 67, 64
1, 2340, Note_on_c, 0, 48, 64
1, 2340, Lyric_t, "C_maj_0 "
1, 2370, Note_on_c, 0, 55, 64
1, 2370, Note_on_c, 0, 60, 64
1, 2370, Note_on_c, 0, 64, 64
1, 2400, Note_on_c, 0, 64, 0
1, 2400, Note_on_c, 0, 55, 0
1, 2400, Note_on_c, 0, 60, 0
1, 2400, Note_on_c, 0, 55, 64
1, 2400, Note_on_c, 0, 60, 64
1, 2400, Note_on_c, 0, 64, 64
1, 2430, Note_on_c, 0, 64, 0
1, 2430, Note_on_c, 0, 55, 0
1, 2430, Note_on_c, 0, 67, 0
1, 2430, Note_on_c, 0, 60, 0
1, 2430, Note_on_c, 0, 55, 64
1, 2430, Note_on_c, 0, 60, 64
1, 2430, Note_on_c, 0, 64, 64
1, 2460, Note_on_c, 0, 64, 0
1, 2460, Note_on_c, 0, 55, 0
1, 2460, Note_on_c, 0, 60, 0
1, 2460, Note_on_c, 0, 55, 64
1, 2460, Note_on_c, 0, 60, 64
1, 2460, Note_on_c, 0, 64, 64
1, 2490, Note_on_c, 0, 64, 0
1, 2490, Note_on_c, 0, 55, 0
1, 2490, Note_on_c, 0, 60, 0
1, 2490, Note_on_c, 0, 60, 64
1, 2490, Note_on_c, 0, 55, 64
1, 2490, Note_on_c, 0, 60, 64
1, 2490, Note_on_c, 0, 64, 64
1, 2520, Note_on_c, 0, 64, 0
1, 2520, Note_on_c, 0, 36, 0
1, 2520, Note_on_c, 0, 60, 0
1, 2520, Note_on_c, 0, 48, 0
1, 2520, Note_on_c, 0, 60, 0
1, 2520, Note_on_c, 0, 55, 0
1, 2520, Note_on_c, 0, 61, 64
1, 2520, Note_on_c, 0, 61, 64
1, 2520, Note_on_c, 0, 37, 64
1, 2520, Note_on_c, 0, 49, 64
1, 2520, Lyric_t, "G_hdim_2 "
1, 2550, Note_on_c, 0, 55, 64
1, 2550, Note_on_c, 0, 58, 64
1, 2550, Note_on_c, 0, 65, 64
1, 2580, Note_on_c, 0, 65, 0
1, 2580, Note_on_c, 0, 55, 0
1, 2580, Note_on_c, 0, 58, 0
1, 2580, Note_on_c, 0, 55, 64
1, 2580, Note_on_c, 0, 58, 64
1, 2580, Note_on_c, 0, 65, 64
1, 2610, Note_on_c, 0, 65, 0
1, 2610, Note_on_c, 0, 55, 0
1, 2610, Note_on_c, 0, 61, 0
1, 2610, Note_on_c, 0, 58, 0
1, 2610, Note_on_c, 0, 61, 64
1, 2610, Note_on_c, 0, 55, 64
1, 2610, Note_on_c, 0, 58, 64
1, 2610, Note_on_c, 0, 65, 64
1, 2640, Note_on_c, 0, 65, 0
1, 2640, Note_on_c, 0, 55, 0
1, 2640, Note_on_c, 0, 58, 0
1, 2640, Note_on_c, 0, 55, 64
1, 2640, Note_on_c, 0, 58, 64
1, 2640, Note_on_c, 0, 65, 64
1, 2670, Note_on_c, 0, 65, 0
1, 2670, Note_on_c, 0, 55, 0
1, 2670, Note_on_c, 0, 61, 0
1, 2670, Note_on_c, 0, 58, 0
1, 2670, Note_on_c, 0, 61, 64
1, 2670, Note_on_c, 0, 55, 64
1, 2670, Note_on_c, 0, 58, 64
1, 2670, Note_on_c, 0, 65, 64
1, 2700, Note_on_c, 0, 65, 0
1, 2700, Note_on_c, 0, 55, 0
1, 2700, Note_on_c, 0, 61, 0
1, 2700, Note_on_c, 0, 49, 0
1, 2700, Note_on_c, 0, 37, 0
1, 2700, Note_on_c, 0, 58, 0
1, 2700, Note_on_c, 0, 61, 0
1, 2700, Note_on_c, 0, 60, 64
1, 2700, Note_on_c, 0, 36, 64
1, 2700, Note_on_c, 0, 48, 64
1, 2700, Lyric_t, "C_maj_0 "
1, 2730, Note_on_c, 0, 55, 64
1, 2730, Note_on_c, 0, 60, 64
1, 2730, Note_on_c, 0, 64, 64
1, 2760, Note_on_c, 0, 64, 0
1, 2760, Note_on_c, 0, 60, 0
1, 2760, Note_on_c, 0, 55, 0
1, 2760, Note_on_c, 0, 55, 64
1, 2760, Note_on_c, 0, 60, 64
1, 2760, Note_on_c, 0, 64, 64
1, 2790, Note_on_c, 0, 64, 0
1, 2790, Note_on_c, 0, 60, 0
1, 2790, Note_on_c, 0, 55, 0
1, 2790, Note_on_c, 0, 55, 64
1, 2790, Note_on_c, 0, 60, 64
1, 2790, Note_on_c, 0, 64, 64
1, 2820, Note_on_c, 0, 64, 0
1, 2820, Note_on_c, 0, 55, 0
1, 2820, Note_on_c, 0, 60, 0
1, 2820, Note_on_c, 0, 60, 0
1, 2820, Note_on_c, 0, 60, 64
1, 2820, Note_on_c, 0, 55, 64
1, 2820, Note_on_c, 0, 60, 64
1, 2820, Note_on_c, 0, 64, 64
1, 2850, Note_on_c, 0, 64, 0
1, 2850, Note_on_c, 0, 55, 0
1, 2850, Note_on_c, 0, 60, 0
1, 2850, Note_on_c, 0, 60, 0
1, 2850, Note_on_c, 0, 60, 64
1, 2850, Note_on_c, 0, 55, 64
1, 2850, Note_on_c, 0, 60, 64
1, 2850, Note_on_c, 0, 64, 64
1, 2880, Note_on_c, 0, 64, 0
1, 2880, Note_on_c, 0, 48, 0
1, 2880, Note_on_c, 0, 60, 0
1, 2880, Note_on_c, 0, 36, 0
1, 2880, Note_on_c, 0, 60, 0
1, 2880, Note_on_c, 0, 55, 0
1, 2880, Note_on_c, 0, 61, 64
1, 2880, Note_on_c, 0, 61, 64
1, 2880, Note_on_c, 0, 37, 64
1, 2880, Note_on_c, 0, 49, 64
1, 2880, Lyric_t, "G_hdim_2 "
1, 2910, Note_on_c, 0, 55, 64
1, 2910, Note_on_c, 0, 58, 64
1, 2910, Note_on_c, 0, 65, 64
1, 2940, Note_on_c, 0, 65, 0
1, 2940, Note_on_c, 0, 55, 0
1, 2940, Note_on_c, 0, 58, 0
1, 2940, Note_on_c, 0, 55, 64
1, 2940, Note_on_c, 0, 58, 64
1, 2940, Note_on_c, 0, 65, 64
1, 2970, Note_on_c, 0, 65, 0
1, 2970, Note_on_c, 0, 55, 0
1, 2970, Note_on_c, 0, 58, 0
1, 2970, Note_on_c, 0, 55, 64
1, 2970, Note_on_c, 0, 58, 64
1, 2970, Note_on_c, 0, 65, 64
1, 3000, Note_on_c, 0, 65, 0
1, 3000, Note_on_c, 0, 55, 0
1, 3000, Note_on_c, 0, 61, 0
1, 3000, Note_on_c, 0, 58, 0
1, 3000, Note_on_c, 0, 61, 64
1, 3000, Note_on_c, 0, 55, 64
1, 3000, Note_on_c, 0, 58, 64
1, 3000, Note_on_c, 0, 65, 64
1, 3030, Note_on_c, 0, 65, 0
1, 3030, Note_on_c, 0, 55, 0
1, 3030, Note_on_c, 0, 61, 0
1, 3030, Note_on_c, 0, 58, 0
1, 3030, Note_on_c, 0, 61, 64
1, 3030, Note_on_c, 0, 55, 64
1, 3030, Note_on_c, 0, 58, 64
1, 3030, Note_on_c, 0, 65, 64
1, 3060, Note_on_c, 0, 65, 0
1, 3060, Note_on_c, 0, 55, 0
1, 3060, Note_on_c, 0, 61, 0
1, 3060, Note_on_c, 0, 49, 0
1, 3060, Note_on_c, 0, 37, 0
1, 3060, Note_on_c, 0, 58, 0
1, 3060, Note_on_c, 0, 61, 0
1, 3060, Note_on_c, 0, 60, 64
1, 3060, Note_on_c, 0, 36, 64
1, 3060, Note_on_c, 0, 48, 64
1, 3060, Lyric_t, "C_maj_0 "
1, 3090, Note_on_c, 0, 55, 64
1, 3090, Note_on_c, 0, 60, 64
1, 3090, Note_on_c, 0, 64, 64
1, 3120, Note_on_c, 0, 64, 0
1, 3120, Note_on_c, 0, 60, 0
1, 3120, Note_on_c, 0, 55, 0
1, 3120, Note_on_c, 0, 55, 64
1, 3120, Note_on_c, 0, 60, 64
1, 3120, Note_on_c, 0, 64, 64
1, 3150, Note_on_c, 0, 64, 0
1, 3150, Note_on_c, 0, 55, 0
1, 3150, Note_on_c, 0, 60, 0
1, 3150, Note_on_c, 0, 60, 0
1, 3150, Note_on_c, 0, 55, 64
1, 3150, Note_on_c, 0, 60, 64
1, 3150, Note_on_c, 0, 64, 64
1, 3180, Note_on_c, 0, 64, 0
1, 3180, Note_on_c, 0, 55, 0
1, 3180, Note_on_c, 0, 60, 0
1, 3180, Note_on_c, 0, 60, 64
1, 3180, Note_on_c, 0, 55, 64
1, 3180, Note_on_c, 0, 60, 64
1, 3180, Note_on_c, 0, 64, 64
1, 3210, Note_on_c, 0, 64, 0
1, 3210, Note_on_c, 0, 55, 0
1, 3210, Note_on_c, 0, 60, 0
1, 3210, Note_on_c, 0, 60, 0
1, 3210, Note_on_c, 0, 60, 64
1, 3210, Note_on_c, 0, 55, 64
1, 3210, Note_on_c, 0, 60, 64
1, 3210, Note_on_c, 0, 64, 64
1, 3240, Note_on_c, 0, 64, 0
1, 3240, Note_on_c, 0, 48, 0
1, 3240, Note_on_c, 0, 60, 0
1, 3240, Note_on_c, 0, 36, 0
1, 3240, Note_on_c, 0, 60, 0
1, 3240, Note_on_c, 0, 55, 0
1, 3240, Note_on_c, 0, 68, 64
1, 3240, Note_on_c, 0, 41, 64
1, 3240, Lyric_t, "F_min_0 "
1, 3270, Note_on_c, 0, 41, 0
1, 3270, Note_on_c, 0, 60, 64
1, 3270, Note_on_c, 0, 65, 64
1, 3270, Note_on_c, 0, 68, 64
1, 3270, Note_on_c, 0, 53, 64
1, 3270, Note_on_c, 0, 56, 64
1, 3300, Note_on_c, 0, 56, 0
1, 3300, Note_on_c, 0, 60, 0
1, 3300, Note_on_c, 0, 68, 0
1, 3300, Note_on_c, 0, 65, 0
1, 3300, Note_on_c, 0, 53, 0
1, 3300, Note_on_c, 0, 60, 64
1, 3300, Note_on_c, 0, 65, 64
1, 3300, Note_on_c, 0, 68, 64
1, 3300, Note_on_c, 0, 53, 64
1, 3300, Note_on_c, 0, 56, 64
1, 3330, Note_on_c, 0, 56, 0
1, 3330, Note_on_c, 0, 60, 0
1, 3330, Note_on_c, 0, 68, 0
1, 3330, Note_on_c, 0, 65, 0
1, 3330, Note_on_c, 0, 53, 0
1, 3330, Note_on_c, 0, 60, 64
1, 3330, Note_on_c, 0, 65, 64
1, 3330, Note_on_c, 0, 68, 64
1, 3330, Note_on_c, 0, 53, 64
1, 3330, Note_on_c, 0, 56, 64
1, 3360, Note_on_c, 0, 56, 0
1, 3360, Note_on_c, 0, 60, 0
1, 3360, Note_on_c, 0, 65, 0
1, 3360, Note_on_c, 0, 68, 0
1, 3360, Note_on_c, 0, 53, 0
1, 3360, Note_on_c, 0, 68, 0
1, 3360, Note_on_c, 0, 67, 64
1, 3360, Note_on_c, 0, 60, 64
1, 3360, Note_on_c, 0, 65, 64
1, 3360, Note_on_c, 0, 68, 64
1, 3360, Note_on_c, 0, 53, 64
1, 3360, Note_on_c, 0, 56, 64
1, 3390, Note_on_c, 0, 56, 0
1, 3390, Note_on_c, 0, 60, 0
1, 3390, Note_on_c, 0, 65, 0
1, 3390, Note_on_c, 0, 67, 0
1, 3390, Note_on_c, 0, 53, 0
1, 3390, Note_on_c, 0, 68, 0
1, 3390, Note_on_c, 0, 65, 64
1, 3390, Note_on_c, 0, 60, 64
1, 3390, Note_on_c, 0, 65, 64
1, 3390, Note_on_c, 0, 68, 64
1, 3390, Note_on_c, 0, 53, 64
1, 3390, Note_on_c, 0, 56, 64
1, 3420, Note_on_c, 0, 56, 0
1, 3420, Note_on_c, 0, 60, 0
1, 3420, Note_on_c, 0, 65, 0
1, 3420, Note_on_c, 0, 65, 0
1, 3420, Note_on_c, 0, 53, 0
1, 3420, Note_on_c, 0, 68, 0
1, 3420, Note_on_c, 0, 70, 64
1, 3420, Note_on_c, 0, 39, 64
1, 3420, Lyric_t, "Eb_min7_0 "
1, 3450, Note_on_c, 0, 39, 0
1, 3450, Note_on_c, 0, 61, 64
1, 3450, Note_on_c, 0, 66, 64
1, 3450, Note_on_c, 0, 70, 64
1, 3450, Note_on_c, 0, 54, 64
1, 3450, Note_on_c, 0, 58, 64
1, 3480, Note_on_c, 0, 58, 0
1, 3480, Note_on_c, 0, 61, 0
1, 3480, Note_on_c, 0, 70, 0
1, 3480, Note_on_c, 0, 66, 0
1, 3480, Note_on_c, 0, 54, 0
1, 3480, Note_on_c, 0, 61, 64
1, 3480, Note_on_c, 0, 66, 64
1, 3480, Note_on_c, 0, 70, 64
1, 3480, Note_on_c, 0, 54, 64
1, 3480, Note_on_c, 0, 58, 64
1, 3510, Note_on_c, 0, 58, 0
1, 3510, Note_on_c, 0, 61, 0
1, 3510, Note_on_c, 0, 70, 0
1, 3510, Note_on_c, 0, 66, 0
1, 3510, Note_on_c, 0, 54, 0
1, 3510, Note_on_c, 0, 61, 64
1, 3510, Note_on_c, 0, 66, 64
1, 3510, Note_on_c, 0, 70, 64
1, 3510, Note_on_c, 0, 54, 64
1, 3510, Note_on_c, 0, 58, 64
1, 3540, Note_on_c, 0, 58, 0
1, 3540, Note_on_c, 0, 61, 0
1, 3540, Note_on_c, 0, 66, 0
1, 3540, Note_on_c, 0, 70, 0
1, 3540, Note_on_c, 0, 54, 0
1, 3540, Note_on_c, 0, 70, 0
1, 3540, Note_on_c, 0, 70, 64
1, 3540, Note_on_c, 0, 61, 64
1, 3540, Note_on_c, 0, 66, 64
1, 3540, Note_on_c, 0, 70, 64
1, 3540, Note_on_c, 0, 54, 64
1, 3540, Note_on_c, 0, 58, 64
1, 3570, Note_on_c, 0, 58, 0
1, 3570, Note_on_c, 0, 61, 0
1, 3570, Note_on_c, 0, 66, 0
1, 3570, Note_on_c, 0, 70, 0
1, 3570, Note_on_c, 0, 54, 0
1, 3570, Note_on_c, 0, 70, 0
1, 3570, Note_on_c, 0, 70, 64
1, 3570, Note_on_c, 0, 61, 64
1, 3570, Note_on_c, 0, 66, 64
1, 3570, Note_on_c, 0, 70, 64
1, 3570, Note_on_c, 0, 54, 64
1, 3570, Note_on_c, 0, 58, 64
1, 3600, Note_on_c, 0, 58, 0
1, 3600, Note_on_c, 0, 61, 0
1, 3600, Note_on_c, 0, 66, 0
1, 3600, Note_on_c, 0, 70, 0
1, 3600, Note_on_c, 0, 54, 0
1, 3600, Note_on_c, 0, 70, 0
1, 3600, Note_on_c, 0, 72, 64
1, 3600, Note_on_c, 0, 44, 64
1, 3600, Lyric_t, "Ab_dom7_0 "
1, 3630, Note_on_c, 0, 44, 0
1, 3630, Note_on_c, 0, 63, 64
1, 3630, Note_on_c, 0, 66, 64
1, 3630, Note_on_c, 0, 68, 64
1, 3630, Note_on_c, 0, 72, 64
1, 3630, Note_on_c, 0, 56, 64
1, 3630, Note_on_c, 0, 60, 64
1, 3660, Note_on_c, 0, 60, 0
1, 3660, Note_on_c, 0, 68, 0
1, 3660, Note_on_c, 0, 63, 0
1, 3660, Note_on_c, 0, 66, 0
1, 3660, Note_on_c, 0, 72, 0
1, 3660, Note_on_c, 0, 56, 0
1, 3660, Note_on_c, 0, 63, 64
1, 3660, Note_on_c, 0, 66, 64
1, 3660, Note_on_c, 0, 68, 64
1, 3660, Note_on_c, 0, 72, 64
1, 3660, Note_on_c, 0, 56, 64
1, 3660, Note_on_c, 0, 60, 64
1, 3690, Note_on_c, 0, 60, 0
1, 3690, Note_on_c, 0, 68, 0
1, 3690, Note_on_c, 0, 63, 0
1, 3690, Note_on_c, 0, 66, 0
1, 3690, Note_on_c, 0, 72, 0
1, 3690, Note_on_c, 0, 56, 0
1, 3690, Note_on_c, 0, 63, 64
1, 3690, Note_on_c, 0, 66, 64
1, 3690, Note_on_c, 0, 68, 64
1, 3690, Note_on_c, 0, 72, 64
1, 3690, Note_on_c, 0, 56, 64
1, 3690, Note_on_c, 0, 60, 64
1, 3720, Note_on_c, 0, 60, 0
1, 3720, Note_on_c, 0, 68, 0
1, 3720, Note_on_c, 0, 63, 0
1, 3720, Note_on_c, 0, 66, 0
1, 3720, Note_on_c, 0, 72, 0
1, 3720, Note_on_c, 0, 56, 0
1, 3720, Note_on_c, 0, 63, 64
1, 3720, Note_on_c, 0, 66, 64
1, 3720, Note_on_c, 0, 68, 64
1, 3720, Note_on_c, 0, 72, 64
1, 3720, Note_on_c, 0, 56, 64
1, 3720, Note_on_c, 0, 60, 64
1, 3750, Note_on_c, 0, 60, 0
1, 3750, Note_on_c, 0, 72, 0
1, 3750, Note_on_c, 0, 63, 0
1, 3750, Note_on_c, 0, 66, 0
1, 3750, Note_on_c, 0, 72, 0
1, 3750, Note_on_c, 0, 56, 0
1, 3750, Note_on_c, 0, 68, 0
1, 3750, Note_on_c, 0, 68, 64
1, 3750, Note_on_c, 0, 63, 64
1, 3750, Note_on_c, 0, 66, 64
1, 3750, Note_on_c, 0, 68, 64
1, 3750, Note_on_c, 0, 72, 64
1, 3750, Note_on_c, 0, 56, 64
1, 3750, Note_on_c, 0, 60, 64
1, 3780, Note_on_c, 0, 60, 0
1, 3780, Note_on_c, 0, 72, 0
1, 3780, Note_on_c, 0, 63, 0
1, 3780, Note_on_c, 0, 66, 0
1, 3780, Note_on_c, 0, 68, 0
1, 3780, Note_on_c, 0, 56, 0
1, 3780, Note_on_c, 0, 68, 0
1, 3780, Note_on_c, 0, 77, 64
1, 3780, Note_on_c, 0, 37, 64
1, 3780, Note_on_c, 0, 49, 64
1, 3780, Lyric_t, "Db_maj_0 "
1, 3810, Note_on_c, 0, 49, 0
1, 3810, Note_on_c, 0, 37, 0
1, 3810, Note_on_c, 0, 68, 64
1, 3810, Note_on_c, 0, 77, 64
1, 3810, Note_on_c, 0, 61, 64
1, 3810, Note_on_c, 0, 65, 64
1, 3840, Note_on_c, 0, 65, 0
1, 3840, Note_on_c, 0, 68, 0
1, 3840, Note_on_c, 0, 77, 0
1, 3840, Note_on_c, 0, 61, 0
1, 3840, Note_on_c, 0, 68, 64
1, 3840, Note_on_c, 0, 77, 64
1, 3840, Note_on_c, 0, 61, 64
1, 3840, Note_on_c, 0, 65, 64
1, 3870, Note_on_c, 0, 65, 0
1, 3870, Note_on_c, 0, 77, 0
1, 3870, Note_on_c, 0, 77, 0
1, 3870, Note_on_c, 0, 68, 0
1, 3870, Note_on_c, 0, 61, 0
1, 3870, End_track
0, 0, End_of_file
