0, 0, Header, 0, 1, 120
1, 0, Start_track
1, 0, Title_t, "untitled"
1, 0, Time_signature, 2, 2, 24, 8
1, 0, Key_signature, -4, "major"
1, 0, Tempo, 1500000
1, 0, Program_c, 0, 0
1, 0, Note_on_c, 0, 68, 64
1, 0, Note_on_c, 0, 60, 64
1, 0, Note_on_c, 0, 44, 64
1, 0, Note_on_c, 0, 51, 64
1, 0, Note_on_c, 0, 56, 64
1, 0, Lyric_t, "Ab_maj_0 "
1, 120, Note_on_c, 0, 56, 0
1, 120, Note_on_c, 0, 44, 0
1, 120, Note_on_c, 0, 68, 0
1, 120, Note_on_c, 0, 60, 0
1, 120, Note_on_c, 0, 51, 0
1, 120, Note_on_c, 0, 72, 64
1, 120, Note_on_c, 0, 61, 64
1, 120, Note_on_c, 0, 43, 64
1, 120, Note_on_c, 0, 51, 64
1, 120, Note_on_c, 0, 55, 64
1, 120, Lyric_t, "Eb_dom7_1 "
1, 210, Note_on_c, 0, 72, 0
1, 210, Note_on_c, 0, 70, 64
1, 240, Note_on_c, 0, 70, 0
1, 240, Note_on_c, 0, 55, 0
1, 240, Note_on_c, 0, 61, 0
1, 240, Note_on_c, 0, 43, 0
1, 240, Note_on_c, 0, 51, 0
1, 240, Note_on_c, 0, 68, 64
1, 240, Note_on_c, 0, 60, 64
1, 240, Note_on_c, 0, 44, 64
1, 240, Note_on_c, 0, 51, 64
1, 240, Note_on_c, 0, 56, 64
1, 240, Lyric_t, "Ab_maj_0 "
1, 420, Note_on_c, 0, 56, 0
1, 420, Note_on_c, 0, 44, 0
1, 420, Note_on_c, 0, 68, 0
1, 420, Note_on_c, 0, 60, 0
1, 420, Note_on_c, 0, 51, 0
1, 420, Note_on_c, 0, 69, 64
1, 480, Note_on_c, 0, 69, 0
1, 480, Note_on_c, 0, 70, 64
1, 480, Note_on_c, 0, 63, 64
1, 480, Note_on_c, 0, 61, 64
1, 480, Note_on_c, 0, 55, 64
1, 480, Lyric_t, "Eb_dom7_1 "
1, 540, Note_on_c, 0, 61, 0
1, 540, Note_on_c, 0, 58, 64
1, 600, Note_on_c, 0, 58, 0
1, 600, Note_on_c, 0, 55, 0
1, 600, Note_on_c, 0, 63, 0
1, 600, Note_on_c, 0, 70, 0
1, 600, Note_on_c, 0, 73, 64
1, 600, Note_on_c, 0, 63, 64
1, 600, Note_on_c, 0, 56, 64
1, 600, Note_on_c, 0, 56, 64
1, 600, Lyric_t, "Ab_maj_0 "
1, 660, Note_on_c, 0, 56, 0
1, 660, Note_on_c, 0, 63, 0
1, 660, Note_on_c, 0, 68, 64
1, 660, Note_on_c, 0, 60, 64
1, 690, Note_on_c, 0, 73, 0
1, 690, Note_on_c, 0, 72, 64
1, 720, Note_on_c, 0, 72, 0
1, 720, Note_on_c, 0, 60, 0
1, 720, Note_on_c, 0, 68, 0
1, 720, Note_on_c, 0, 56, 0
1, 720, Note_on_c, 0, 70, 64
1, 720, Note_on_c, 0, 67, 64
1, 720, Note_on_c, 0, 51, 64
1, 720, Note_on_c, 0, 63, 64
1, 720, Lyric_t, "Eb_maj_0 "
1, 900, Note_on_c, 0, 63, 0
1, 900, Note_on_c, 0, 70, 0
1, 900, Note_on_c, 0, 67, 0
1, 900, Note_on_c, 0, 51, 0
1, 900, Note_on_c, 0, 71, 64
1, 960, Note_on_c, 0, 71, 0
1, 960, Note_on_c, 0, 72, 64
1, 960, Note_on_c, 0, 63, 64
1, 960, Note_on_c, 0, 56, 64
1, 960, Lyric_t, "Ab_maj_0 "
1, 1065, Note_on_c, 0, 72, 0
1, 1065, Note_on_c, 0, 68, 64
1, 1065, Lyric_t, "Ab_maj_1 "
1, 1080, Note_on_c, 0, 68, 0
1, 1080, Note_on_c, 0, 56, 0
1, 1080, Note_on_c, 0, 63, 0
1, 1080, Note_on_c, 0, 75, 64
1, 1080, Note_on_c, 0, 63, 64
1, 1080, Note_on_c, 0, 68, 64
1, 1080, Note_on_c, 0, 48, 64
1, 1080, Note_on_c, 0, 56, 64
1, 1080, Note_on_c, 0, 60, 64
1, 1185, Note_on_c, 0, 75, 0
1, 1185, Note_on_c, 0, 72, 64
1, 1185, Lyric_t, "Db_maj_0 "
1, 1200, Note_on_c, 0, 72, 0
1, 1200, Note_on_c, 0, 60, 0
1, 1200, Note_on_c, 0, 48, 0
1, 1200, Note_on_c, 0, 63, 0
1, 1200, Note_on_c, 0, 68, 0
1, 1200, Note_on_c, 0, 56, 0
1, 1200, Note_on_c, 0, 77, 64
1, 1200, Note_on_c, 0, 65, 64
1, 1200, Note_on_c, 0, 68, 64
1, 1200, Note_on_c, 0, 49, 64
1, 1200, Note_on_c, 0, 56, 64
1, 1200, Note_on_c, 0, 61, 64
1, 1305, Note_on_c, 0, 77, 0
1, 1305, Note_on_c, 0, 73, 64
1, 1305, Lyric_t, "Db_maj_1 "
1, 1320, Note_on_c, 0, 73, 0
1, 1320, Note_on_c, 0, 61, 0
1, 1320, Note_on_c, 0, 49, 0
1, 1320, Note_on_c, 0, 65, 0
1, 1320, Note_on_c, 0, 68, 0
1, 1320, Note_on_c, 0, 56, 0
1, 1320, Note_on_c, 0, 80, 64
1, 1320, Note_on_c, 0, 68, 64
1, 1320, Note_on_c, 0, 73, 64
1, 1320, Note_on_c, 0, 53, 64
1, 1320, Note_on_c, 0, 56, 64
1, 1320, Note_on_c, 0, 61, 64
1, 1320, Note_on_c, 0, 65, 64
1, 1470, Note_on_c, 0, 80, 0
1, 1470, Note_on_c, 0, 79, 64
1, 1500, Note_on_c, 0, 79, 0
1, 1500, Note_on_c, 0, 77, 64
1, 1530, Note_on_c, 0, 77, 0
1, 1530, Note_on_c, 0, 75, 64
1, 1560, Note_on_c, 0, 75, 0
1, 1560, Note_on_c, 0, 65, 0
1, 1560, Note_on_c, 0, 73, 0
1, 1560, Note_on_c, 0, 53, 0
1, 1560, Note_on_c, 0, 68, 0
1, 1560, Note_on_c, 0, 61, 0
1, 1560, Note_on_c, 0, 56, 0
1, 1560, Note_on_c, 0, 73, 64
1, 1560, Note_on_c, 0, 70, 64
1, 1560, Note_on_c, 0, 55, 64
1, 1560, Note_on_c, 0, 63, 64
1, 1560, Lyric_t, "Eb_dom7_1 "
1, 1620, Note_on_c, 0, 63, 0
1, 1620, Note_on_c, 0, 73, 0
1, 1620, Note_on_c, 0, 70, 0
1, 1620, Note_on_c, 0, 55, 0
1, 1620, Note_on_c, 0, 72, 64
1, 1620, Note_on_c, 0, 68, 64
1, 1620, Note_on_c, 0, 56, 64
1, 1620, Note_on_c, 0, 63, 64
1, 1620, Lyric_t, "Ab_maj_0 "
1, 1680, Note_on_c, 0, 63, 0
1, 1680, Note_on_c, 0, 72, 0
1, 1680, Note_on_c, 0, 68, 0
1, 1680, Note_on_c, 0, 56, 0
1, 1680, Note_on_c, 0, 75, 64
1, 1680, Note_on_c, 0, 63, 64
1, 1680, Note_on_c, 0, 60, 64
1, 1680, Note_on_c, 0, 51, 64
1, 1680, Lyric_t, "Ab_maj_2 "
1, 1740, Note_on_c, 0, 63, 0
1, 1740, Note_on_c, 0, 63, 64
1, 1770, Note_on_c, 0, 75, 0
1, 1770, Note_on_c, 0, 60, 0
1, 1770, Note_on_c, 0, 72, 64
1, 1770, Note_on_c, 0, 56, 64
1, 1800, Note_on_c, 0, 56, 0
1, 1800, Note_on_c, 0, 63, 0
1, 1800, Note_on_c, 0, 51, 0
1, 1800, Note_on_c, 0, 72, 0
1, 1800, Note_on_c, 0, 70, 64
1, 1800, Note_on_c, 0, 63, 64
1, 1800, Note_on_c, 0, 55, 64
1, 1800, Note_on_c, 0, 51, 64
1, 1800, Lyric_t, "Eb_maj_0 "
1, 1830, Note_on_c, 0, 70, 0
1, 1860, Note_on_c, 0, 63, 0
1, 1860, Note_on_c, 0, 55, 0
1, 1860, Note_on_c, 0, 51, 0
1, 1860, End_track
0, 0, End_of_file
